<?xml version="1.0" encoding="UTF-8"?>
<svg version="1.1" xmlns="http://www.w3.org/2000/svg" width="439" height="601">
<path d="M0 0 C6.96458879 5.84126801 12.79379977 13.7607468 14.25 22.875 C15.34876257 36.78808102 13.86578549 47.64010661 4.546875 58.640625 C0.35036353 62.72294569 -4.55882394 65.27941197 -9.75 67.875 C-10.21751788 70.23099235 -10.21751788 70.23099235 -10.375 72.9375 C-10.44976562 73.85660156 -10.52453125 74.77570313 -10.6015625 75.72265625 C-10.67503906 76.78806641 -10.67503906 76.78806641 -10.75 77.875 C-10.04875 78.04 -9.3475 78.205 -8.625 78.375 C-2.89237967 81.36593235 0.7882218 87.55062812 2.77734375 93.61328125 C4.5235816 101.96924584 3.8032956 109.60643639 -0.75 116.875 C-3.42918478 120.52652599 -5.9695399 123.35469327 -9.75 125.875 C-10.22775114 128.41638301 -10.22775114 128.41638301 -10.18237305 131.42626953 C-10.21206429 133.16784836 -10.21206429 133.16784836 -10.24235535 134.9446106 C-10.24874527 136.20296722 -10.25513519 137.46132385 -10.26171875 138.7578125 C-10.27966995 140.04235321 -10.29762115 141.32689392 -10.31611633 142.65036011 C-10.36368892 146.06649661 -10.39345073 149.48256676 -10.41955566 152.89892578 C-10.44932502 156.38457349 -10.49586762 159.86999231 -10.54101562 163.35546875 C-10.6271308 170.19518228 -10.69443926 177.03497195 -10.75 183.875 C-6.87484351 181.64610529 -2.99985638 179.41691641 0.875 177.1875 C1.56982483 176.78776978 2.26464966 176.38803955 2.98052979 175.97619629 C9.27863539 172.35062531 15.56150532 168.70396108 21.8046875 164.984375 C22.80935059 164.38584717 23.81401367 163.78731934 24.84912109 163.1706543 C26.75802049 162.03016643 28.66466593 160.88589608 30.56884766 159.73754883 C31.42269043 159.22732178 32.2765332 158.71709473 33.15625 158.19140625 C33.90197266 157.74224854 34.64769531 157.29309082 35.41601562 156.83032227 C37.25 155.875 37.25 155.875 39.25 155.875 C39.26417969 155.25753906 39.27835938 154.64007813 39.29296875 154.00390625 C39.78721735 145.22765406 42.6131202 139.08092148 49 133 C55.24395827 127.96040072 61.75420827 126.37305393 69.6953125 126.55859375 C72.48885455 126.9045829 74.90262501 127.65088113 77.5625 128.5625 C81.39958636 129.93486921 81.39958636 129.93486921 85.25 128.5625 C85.91 128.005625 86.57 127.44875 87.25 126.875 C87.91 126.875 88.57 126.875 89.25 126.875 C89.20359375 125.91980469 89.1571875 124.96460938 89.109375 123.98046875 C88.76160313 111.52278353 90.90441975 101.70870181 99.6875 92.25 C109.53202604 83.12580514 118.9306617 80.34343199 132.13671875 80.60546875 C142.23505183 81.07532014 150.25547021 85.73772471 157.25 92.875 C165.71269063 103.78246792 167.50774846 114.45472741 166.25 127.875 C164.21430722 137.96813545 158.56003813 145.67476983 150.375 151.75 C140.56743103 158.06847867 130.74435739 159.12928386 119.25 157.875 C112.86518062 156.41539885 107.45559229 153.81436714 102.25 149.875 C99.29639228 151.02362522 97.50367705 151.73190056 95.25 153.875 C94.4273953 156.60097195 94.11098213 159.23581493 93.75390625 162.05859375 C92.5749069 168.64819477 88.26885343 173.56949849 83.11328125 177.62109375 C76.11443491 182.33100921 68.53748482 182.8625274 60.25 181.875 C59.03138187 181.23646707 57.8153939 180.59289862 56.6015625 179.9453125 C53.67027696 178.78020687 52.55579719 178.76803142 49.53222656 179.82568359 C46.29717312 181.5429463 43.21750597 183.41252756 40.125 185.375 C38.40612516 186.41778734 36.68723998 187.46055866 34.96743774 188.5018158 C33.21058167 189.57137908 31.46202831 190.65349145 29.71484375 191.73876953 C24.40855772 195.02581811 19.0097637 198.1564376 13.625 201.3125 C10.49780307 203.16297531 7.37340614 205.01813457 4.25 206.875 C6.54483798 209.39557492 8.89292415 210.94739126 11.87109375 212.58984375 C12.79728516 213.10595215 13.72347656 213.62206055 14.67773438 214.15380859 C16.16756836 214.97486084 16.16756836 214.97486084 17.6875 215.8125 C23.86163355 219.23401526 29.99937301 222.66939274 35.97265625 226.43359375 C36.863479 226.99119385 37.75430176 227.54879395 38.67211914 228.12329102 C40.35448816 229.18490905 42.02744692 230.26163182 43.68920898 231.35522461 C47.54561123 233.774185 49.46629956 234.89870062 54.125 234.7578125 C56.18050489 234.17713237 58.22365827 233.55044724 60.25 232.875 C69.28859598 232.05224094 76.7918638 232.36130645 84.25 237.875 C89.20718299 242.36275279 93.98244145 247.97591075 94.36328125 254.94921875 C94.38777344 255.64660156 94.41226562 256.34398437 94.4375 257.0625 C94.81272963 260.85783778 94.81272963 260.85783778 97.0859375 262.26953125 C99.11321328 263.27605589 101.11227977 264.13483263 103.25 264.875 C103.81847656 264.46507812 104.38695312 264.05515625 104.97265625 263.6328125 C105.74480469 263.09398437 106.51695312 262.55515625 107.3125 262 C108.06660156 261.46632813 108.82070313 260.93265625 109.59765625 260.3828125 C118.59568237 255.26758705 130.83652982 255.39552088 140.73828125 257.6796875 C152.0094322 261.91916062 159.20511006 269.36978525 164.19140625 280.17578125 C167.99537938 289.87521089 167.78159344 302.81324215 163.63671875 312.3828125 C158.27634604 322.01638374 151.0628784 328.99996753 140.625 332.75 C128.3213107 335.94551495 117.04090959 334.15236213 106.0625 328.125 C97.61383155 321.36606524 91.2137408 313.87595613 89.25 302.875 C89.05299838 296.2134266 89.05299838 296.2134266 89.08398438 293.27539062 C89.07204887 291.04248305 89.07204887 291.04248305 88.25 287.875 C85.14880749 285.53683472 83.4157051 284.7187888 79.5390625 285.23828125 C78.65992188 285.55152344 77.78078125 285.86476563 76.875 286.1875 C68.56463345 288.77818107 61.27238542 288.57000905 53.25 284.875 C46.73263561 280.53009041 42.34816069 275.47443565 40.25 267.875 C39.71603641 264.84613755 39.44544665 261.95328471 39.25 258.875 C38.54907227 258.61396484 37.84814453 258.35292969 37.12597656 258.08398438 C34.00674233 256.77274092 31.16898854 255.21571635 28.234375 253.53125 C27.66027893 253.20265991 27.08618286 252.87406982 26.49468994 252.53552246 C24.66137691 251.48503143 22.83072467 250.42999388 21 249.375 C19.81786614 248.69764119 18.6355755 248.02055592 17.453125 247.34375 C8.00944252 241.92389744 -1.36378015 236.39630579 -10.75 230.875 C-10.75 250.015 -10.75 269.155 -10.75 288.875 C-9.43 289.535 -8.11 290.195 -6.75 290.875 C-0.86072725 296.27033375 2.69153243 301.77200261 3.5625 309.73046875 C3.96101333 319.55631301 1.1921734 326.19717679 -5.28515625 333.46484375 C-6.75 334.875 -6.75 334.875 -9.75 336.875 C-10.33189266 339.30021494 -10.33189266 339.30021494 -10.4375 342 C-10.50324219 342.91007812 -10.56898438 343.82015625 -10.63671875 344.7578125 C-10.67410156 345.45648438 -10.71148437 346.15515625 -10.75 346.875 C-10.09 346.91625 -9.43 346.9575 -8.75 347 C-1.23978454 349.19047951 4.7982809 355.64937253 9.25 361.875 C14.85893074 372.19203321 16.11899645 383.86110792 13.44921875 395.30859375 C9.90301186 404.67984152 3.22112258 412.9895167 -5.59765625 417.9140625 C-17.04326549 423.02408042 -27.8615365 423.18061819 -39.66796875 419.203125 C-49.66729143 414.89416466 -56.82237161 406.88451386 -60.98828125 396.98828125 C-64.44419022 387.40034919 -64.00049843 375.60467527 -60.01171875 366.26953125 C-55.67074828 358.03109504 -49.14866314 351.07433157 -40.75 346.875 C-39.76 346.875 -38.77 346.875 -37.75 346.875 C-37.51453521 340.41898934 -37.51453521 340.41898934 -40.45703125 334.93359375 C-41.87080689 333.80309783 -43.29963986 332.69120043 -44.7421875 331.59765625 C-49.41519758 327.5883227 -51.40409071 321.42482324 -51.98828125 315.4296875 C-52.21123138 307.38001443 -50.98831662 300.81089866 -45.7734375 294.47265625 C-43.83703121 292.46935593 -41.95248106 290.58168446 -39.75 288.875 C-39.09 288.875 -38.43 288.875 -37.75 288.875 C-37.75 269.735 -37.75 250.595 -37.75 230.875 C-54.07567265 240.23755069 -54.07567265 240.23755069 -70.3046875 249.765625 C-71.30935059 250.36415283 -72.31401367 250.96268066 -73.34912109 251.5793457 C-75.25802049 252.71983357 -77.16466593 253.86410392 -79.06884766 255.01245117 C-79.92269043 255.52267822 -80.7765332 256.03290527 -81.65625 256.55859375 C-82.40197266 257.00775146 -83.14769531 257.45690918 -83.91601562 257.91967773 C-85.75 258.875 -85.75 258.875 -87.75 258.875 C-87.77578125 259.5040625 -87.8015625 260.133125 -87.828125 260.78125 C-88.41003925 269.56286511 -90.53336671 275.05160266 -96.9375 281.1875 C-103.11424863 286.33310565 -109.33708425 288.40204682 -117.35546875 288.19140625 C-121.07829576 287.69948294 -124.54888748 286.50740051 -128.07421875 285.23828125 C-131.91493567 284.71684085 -133.6703604 285.57749109 -136.75 287.875 C-137.54922495 291.1419652 -137.54922495 291.1419652 -137.375 294.875 C-137.57829698 305.73368208 -140.73504507 314.47427931 -148.1875 322.5 C-157.78272727 331.39313747 -166.86331447 334.39192178 -179.84375 334.16015625 C-187.76768641 333.58170889 -194.44815202 330.67640799 -200.75 325.875 C-201.9875 325.0396875 -201.9875 325.0396875 -203.25 324.1875 C-211.05314164 316.96959398 -214.73693797 308.23196988 -215.15258789 297.73828125 C-215.34462819 285.42621521 -212.41151554 275.94390789 -203.75 266.875 C-195.07456884 258.79476474 -186.06318565 256.29383688 -174.44726562 256.39575195 C-167.22891172 256.65863701 -160.44365386 258.02019793 -154.6171875 262.5234375 C-152.79462372 264.1487334 -152.79462372 264.1487334 -150.25 263.6875 C-146.84800912 262.59601985 -146.84800912 262.59601985 -143.75 260.875 C-143.01112154 258.50201752 -143.01112154 258.50201752 -142.8125 255.75 C-141.58065841 247.62621707 -137.99445904 242.17730057 -131.54296875 237.12890625 C-124.37034159 232.11275523 -117.34541983 232.11512936 -108.75 232.875 C-107.72003906 233.23207031 -106.69007813 233.58914062 -105.62890625 233.95703125 C-101.56313556 235.25344389 -99.01822021 234.47705485 -95.20483398 232.66674805 C-93.86400757 231.90938354 -93.86400757 231.90938354 -92.49609375 231.13671875 C-91.48546875 230.56912842 -90.47484375 230.00153809 -89.43359375 229.41674805 C-87.82677734 228.49889526 -87.82677734 228.49889526 -86.1875 227.5625 C-84.53621094 226.62821167 -84.53621094 226.62821167 -82.8515625 225.67504883 C-66.4244856 217.49376561 -66.4244856 217.49376561 -51.75 206.875 C-52.38164062 206.52421387 -53.01328125 206.17342773 -53.6640625 205.81201172 C-55.58415366 204.7444106 -57.50342464 203.67533377 -59.42211914 202.60522461 C-61.65915147 201.35812545 -63.89795366 200.11419628 -66.13842773 198.87329102 C-72.00019926 195.60853288 -77.77856221 192.27611343 -83.47265625 188.72265625 C-84.53806641 188.0673291 -85.60347656 187.41200195 -86.70117188 186.73681641 C-88.74184307 185.47468753 -90.76865241 184.18980496 -92.77929688 182.88037109 C-97.53575783 179.73283754 -97.53575783 179.73283754 -102.97802734 179.16699219 C-105.03553418 179.9446965 -105.03553418 179.9446965 -106.94702148 180.97192383 C-112.26593749 183.63606334 -120.51692298 182.5735215 -126.0625 180.8125 C-133.64319716 177.35800509 -138.41260383 171.8218359 -141.8828125 164.37109375 C-142.72532194 161.94603278 -142.9771091 160.04749511 -143.0625 157.5 C-143.33074995 153.87062707 -143.33074995 153.87062707 -145.578125 152.4921875 C-147.60783478 151.47733261 -149.60686838 150.61704101 -151.75 149.875 C-152.31847656 150.28492188 -152.88695312 150.69484375 -153.47265625 151.1171875 C-154.24480469 151.65601563 -155.01695312 152.19484375 -155.8125 152.75 C-156.56660156 153.28367188 -157.32070312 153.81734375 -158.09765625 154.3671875 C-166.82780517 159.3301293 -178.32737997 159.17038351 -187.984375 157.22265625 C-199.65131284 153.38311315 -207.13592158 145.46276873 -212.84765625 134.83203125 C-216.49220922 126.06815271 -216.12265939 113.91296466 -213.25 104.9375 C-208.85433454 94.78891098 -201.49844757 87.38852019 -191.484375 82.84765625 C-181.3170281 79.19481804 -169.95660007 79.55582441 -160.05078125 83.73828125 C-148.94085736 89.22722497 -142.06608783 98.11804926 -138.140625 109.66796875 C-137.55479738 112.97789483 -137.64635584 116.2764982 -137.6875 119.625 C-137.69201172 120.32238281 -137.69652344 121.01976562 -137.70117188 121.73828125 C-137.7128998 123.45055803 -137.73083347 125.16279033 -137.75 126.875 C-131.54476243 129.46051565 -129.38633103 130.15310081 -123.01953125 127.58984375 C-116.78954118 125.62755772 -110.02591216 126.4253869 -103.984375 128.70703125 C-97.63536049 132.02583429 -92.28243588 137.11235086 -89.390625 143.7109375 C-88.21130223 147.69474734 -87.91950022 151.73919469 -87.75 155.875 C-87.02361328 156.15102051 -86.29722656 156.42704102 -85.54882812 156.71142578 C-82.88835509 157.81748078 -80.47039574 159.06733274 -77.96875 160.4921875 C-77.04191406 161.018125 -76.11507812 161.5440625 -75.16015625 162.0859375 C-73.71962891 162.90964844 -73.71962891 162.90964844 -72.25 163.75 C-71.35152344 164.26046875 -70.45304688 164.7709375 -69.52734375 165.296875 C-66.26568332 167.15180569 -63.00766304 169.01306304 -59.75 170.875 C-57.92839634 171.91570923 -56.1067808 172.95639765 -54.28515625 173.99707031 C-49.10645274 176.95582376 -43.92812013 179.91522572 -38.75 182.875 C-38.58745608 175.54709696 -38.46325582 168.2195855 -38.3873148 160.89024162 C-38.35085626 157.48639919 -38.301452 154.08379424 -38.22192383 150.68066406 C-38.13096878 146.76382524 -38.09728454 142.84747872 -38.06640625 138.9296875 C-38.03027725 137.71384979 -37.99414825 136.49801208 -37.95692444 135.24533081 C-37.7931727 129.17150631 -37.7931727 129.17150631 -40.27365112 123.85699463 C-42.0886787 122.26062181 -42.0886787 122.26062181 -44.01695251 121.07034302 C-48.46276763 118.00390999 -50.58013682 111.94440712 -51.75 106.875 C-52.55122462 99.20266729 -51.74134522 92.56767002 -47.75 85.875 C-45.31798164 82.91908836 -42.77997537 80.22290299 -39.75 77.875 C-39.09 77.875 -38.43 77.875 -37.75 77.875 C-37.57948106 74.36230982 -37.68890901 71.24461089 -38.75 67.875 C-41.45264705 65.54013585 -44.49561609 64.29286194 -47.75 62.875 C-55.32165851 57.94461772 -60.72815899 48.5870902 -62.75 39.875 C-64.17159764 27.84633155 -62.75845777 17.17592395 -55.625 7.125 C-41.63802428 -9.55177875 -17.73910389 -12.59000159 0 0 Z M-32.75 24.875 C-34.5134617 27.78854542 -34.75837516 29.47299234 -34.6875 32.875 C-33.47717283 36.74804693 -31.94124462 38.39292085 -28.75 40.875 C-25.03531588 42.13957332 -23.29084542 42.05528181 -19.5625 40.8125 C-16.15019535 38.46180124 -15.05603859 36.79311578 -13.75 32.875 C-13.75 28.88639939 -14.46353636 27.25414306 -16.875 24.0625 C-22.76325932 19.58230269 -27.28930288 20.04926766 -32.75 24.875 Z M-25.75 98.875 C-26.08 100.195 -26.41 101.515 -26.75 102.875 C-25.43 103.205 -24.11 103.535 -22.75 103.875 C-22.42 102.555 -22.09 101.235 -21.75 99.875 C-23.07 99.545 -24.39 99.215 -25.75 98.875 Z M-183.75 111.875 C-186.34848021 114.89258992 -186.75 116.37088616 -186.75 120.375 C-185.53669043 124.62158348 -184.29281383 126.25639847 -180.75 128.875 C-176.38729911 130.22347118 -174.55925094 130.27199103 -170.4375 128.25 C-167.61055553 125.75177 -166.53351105 124.5313849 -165.75 120.875 C-165.83290575 116.89552386 -166.47821914 115.22443253 -168.9375 112.0625 C-174.26646193 107.91775184 -178.19821547 108.17381032 -183.75 111.875 Z M120.25 111.875 C118.03504804 115.09025285 117.25 117.03044281 117.25 120.9375 C118.55134015 124.76018669 120.03906327 126.43189596 123.25 128.875 C127.64523152 130.23352611 129.43788951 130.28871666 133.5625 128.1875 C136.76455916 125.53581668 136.76455916 125.53581668 138.25 121.875 C138.17180259 117.57414245 137.68349606 115.44473768 135.0625 112 C129.73624524 107.97571862 125.72564351 108.10289003 120.25 111.875 Z M-116.75 151.875 C-117.08 153.195 -117.41 154.515 -117.75 155.875 C-116.43 156.205 -115.11 156.535 -113.75 156.875 C-113.75 155.555 -113.75 154.235 -113.75 152.875 C-114.74 152.545 -115.73 152.215 -116.75 151.875 Z M66.25 151.875 C65.59 153.195 64.93 154.515 64.25 155.875 C66.725 156.37 66.725 156.37 69.25 156.875 C68.92 155.225 68.59 153.575 68.25 151.875 C67.59 151.875 66.93 151.875 66.25 151.875 Z M-117.75 257.875 C-117.42 259.525 -117.09 261.175 -116.75 262.875 C-115.43 262.215 -114.11 261.555 -112.75 260.875 C-113.08 259.885 -113.41 258.895 -113.75 257.875 C-115.07 257.875 -116.39 257.875 -117.75 257.875 Z M65.25 257.875 C65.25 259.195 65.25 260.515 65.25 261.875 C66.57 261.875 67.89 261.875 69.25 261.875 C69.25 260.555 69.25 259.235 69.25 257.875 C67.93 257.875 66.61 257.875 65.25 257.875 Z M-184.75 288.875 C-186.85857453 291.53363745 -186.75023614 292.86201207 -186.6875 296.3125 C-185.55648509 300.61035664 -184.27776718 302.20957591 -180.75 304.875 C-177.03531588 306.13957332 -175.29084542 306.05528181 -171.5625 304.8125 C-168.15019535 302.46180124 -167.05603859 300.79311578 -165.75 296.875 C-165.75 292.88639939 -166.46353636 291.25414306 -168.875 288.0625 C-174.80246667 283.55247101 -179.22136981 284.11780658 -184.75 288.875 Z M119.25 288.875 C117.67047802 292.49473786 116.97494324 294.69225592 117.875 298.5625 C120.1171667 302.33341672 121.88223139 304.4289885 126.125 305.8125 C130.05878804 305.89117576 131.98753635 305.04997577 135.25 302.875 C137.84848021 299.85741008 138.25 298.37911384 138.25 294.375 C137.03669043 290.12841652 135.79281383 288.49360153 132.25 285.875 C126.56542095 284.11794829 123.60732718 284.82167239 119.25 288.875 Z M-25.75 309.875 C-26.08 311.195 -26.41 312.515 -26.75 313.875 C-25.43 314.205 -24.11 314.535 -22.75 314.875 C-22.42 313.555 -22.09 312.235 -21.75 310.875 C-23.07 310.545 -24.39 310.215 -25.75 309.875 Z M-32.75 376.875 C-34.77157538 379.53980391 -34.75 380.9045706 -34.75 384.3125 C-33.44720522 388.95370639 -31.83413426 390.37914018 -27.75 392.875 C-23.16430434 393.69387423 -21.36048728 393.24807556 -17.375 390.8125 C-14.24757166 387.31275876 -13.66673815 385.53766365 -13.75 380.875 C-15.32564499 377.22613792 -17.21749662 374.73937678 -20.75 372.875 C-26.225572 372.17810902 -28.89588344 372.91076582 -32.75 376.875 Z " fill="#2B376D" transform="translate(248.75,7.125)"/>
<path d="M0 0 C7.52352435 4.23818588 12.76029208 9.95959827 15.96484375 18.01953125 C18.2427474 26.57851835 16.99427605 34.86661772 12.625 42.5 C8.80504292 47.96518612 4.73846008 51.81865786 -1.375 54.5 C-4.015 54.83 -6.655 55.16 -9.375 55.5 C-9.375 63.42 -9.375 71.34 -9.375 79.5 C-7.725 79.83 -6.075 80.16 -4.375 80.5 C-0.33848526 83.40629061 2.4253311 86.04327954 4.625 90.5 C5.4336749 96.32100218 5.46976646 101.71660414 2.9375 107.0625 C-1.18882058 111.41186494 -3.35170267 113.29534053 -9.375 114.5 C-9.375 141.56 -9.375 168.62 -9.375 196.5 C-0.795 191.55 7.785 186.6 16.625 181.5 C24.25390625 177.10546875 24.25390625 177.10546875 27.29516602 175.35668945 C29.33413805 174.17998212 31.36945349 172.99692749 33.40209961 171.80932617 C38.21485017 169.00246559 43.02115378 166.26029855 48 163.7578125 C55.88922327 160.12893312 55.88922327 160.12893312 60.734375 153.43359375 C61.00119316 150.27244692 61.00119316 150.27244692 60.7578125 147.19921875 C60.56250349 143.22985024 62.01965307 141.38700606 64.625 138.5 C70.34624205 133.14456627 73.87730034 132.1659283 81.6328125 132.203125 C85.77162945 132.6137648 87.52660138 133.80928541 90.625 136.5 C91.285 136.83 91.945 137.16 92.625 137.5 C94.47825445 136.69410724 94.47825445 136.69410724 96.46875 135.41015625 C97.22027344 134.95576172 97.97179687 134.50136719 98.74609375 134.03320312 C99.53113281 133.54787109 100.31617188 133.06253906 101.125 132.5625 C102.67473545 131.61204649 104.22671668 130.66524206 105.78125 129.72265625 C106.47025391 129.29734619 107.15925781 128.87203613 107.86914062 128.43383789 C109.625 127.5 109.625 127.5 111.625 127.5 C111.295 126.38625 110.965 125.2725 110.625 124.125 C108.45677088 115.20069462 109.16021048 107.59491513 113.625 99.5 C118.59416338 91.97376051 125.20066055 88.30811315 133.625 85.5 C142.92289073 84.44184452 151.52574206 86.72588762 158.9375 92.5 C165.0532057 98.41395046 168.89864799 105.96570038 169.3125 114.5 C168.84506566 122.60573636 165.96852387 130.31597297 160.5625 136.4375 C153.65093859 142.54121657 144.80775055 145.45596154 135.65625 145.05859375 C129.34830514 143.89617608 122.91484228 141.05405485 118.59375 136.234375 C116.77455432 134.24726095 116.77455432 134.24726095 114.32421875 134.49609375 C110.79535806 135.80856437 107.64651647 137.62099474 104.4375 139.5625 C97.875 143.5 97.875 143.5 95.625 143.5 C95.955 144.49 96.285 145.48 96.625 146.5 C97.0896492 153.58590024 96.04779417 157.60610696 91.375 163.1875 C87.26077296 166.64719092 83.51747044 168.25914013 78.1875 168.9375 C74.31545766 168.46198603 71.78875503 167.35137531 68.421875 165.47265625 C66.48456636 164.35679467 66.48456636 164.35679467 63.625 163.5 C61.2838672 164.59459586 59.15157002 165.74642895 56.9375 167.0625 C56.24253418 167.46452637 55.54756836 167.86655273 54.83154297 168.28076172 C52.42345907 169.67727328 50.02444271 171.08869854 47.625 172.5 C45.79867789 173.56466164 43.97183372 174.6284281 42.14453125 175.69140625 C38.13465217 178.02553507 34.12897307 180.36669466 30.125 182.7109375 C25.55341912 185.38284119 20.9691192 188.03121439 16.375 190.6640625 C15.77738861 191.0069632 15.17977722 191.34986389 14.5640564 191.70315552 C11.65366135 193.37301047 8.74164493 195.03981532 5.82666016 196.70166016 C4.78300293 197.30026855 3.7393457 197.89887695 2.6640625 198.515625 C1.27501709 199.30888184 1.27501709 199.30888184 -0.14208984 200.11816406 C-2.46638887 201.43860315 -2.46638887 201.43860315 -4.375 203.5 C-3.74335938 203.85078613 -3.11171875 204.20157227 -2.4609375 204.56298828 C9.42048035 211.16924493 21.26471369 217.82436763 33 224.6875 C33.98258789 225.26000488 34.96517578 225.83250977 35.97753906 226.42236328 C40.74707956 229.20684228 45.49472726 232.02056455 50.2109375 234.89453125 C51.08443848 235.41958252 51.95793945 235.94463379 52.85791016 236.4855957 C54.49327541 237.46951139 56.12110431 238.46610336 57.73974609 239.47729492 C58.8198999 240.12275269 58.8198999 240.12275269 59.921875 240.78125 C60.54416992 241.16345703 61.16646484 241.54566406 61.80761719 241.93945312 C63.68047035 242.72202386 63.68047035 242.72202386 65.68457031 241.70898438 C66.32491211 241.31001953 66.96525391 240.91105469 67.625 240.5 C72.31476723 237.72877391 76.22464626 236.73599647 81.625 237.5 C88.03623696 239.56463563 91.70058384 242.64655536 95.4375 248.1875 C96.625 251.5 96.625 251.5 96.20703125 253.75390625 C95.63114506 256.89913081 95.48671416 258.46898304 96.625 261.5 C101.25388624 265.7040744 107.66001063 269.58805176 113.625 271.5 C116.98103803 271.01377871 118.83275252 269.75760385 121.4375 267.625 C128.84619183 261.96992513 135.38398517 260.31380616 144.625 261.5 C153.68000416 263.99067963 160.24834699 267.9698693 165.15625 276.0078125 C169.54583909 284.56751123 169.95983049 292.05461041 167.0625 301.1875 C163.19583056 310.71802327 157.00278128 315.60100851 147.875 319.75 C139.14462934 321.76470092 131.48118923 320.81083204 123.625 316.5 C116.2690266 311.78242642 111.52923884 303.98251847 109.625 295.5 C109.1492625 289.42675528 109.62580882 284.24767465 111.625 278.5 C110.95082031 278.25507813 110.27664063 278.01015625 109.58203125 277.7578125 C105.98409286 276.22738164 102.68623937 274.34156692 99.3125 272.375 C98.66732422 272.00246094 98.02214844 271.62992187 97.35742188 271.24609375 C95.77824055 270.33367787 94.20138136 269.41724491 92.625 268.5 C92.18671875 268.8609375 91.7484375 269.221875 91.296875 269.59375 C85.31349895 273.97183004 79.90799158 274.59912567 72.625 273.5 C67.3895086 271.02504043 63.23270769 266.71541538 60.625 261.5 C60.65327881 260.6541333 60.68155762 259.8082666 60.71069336 258.93676758 C60.78406728 255.51883276 60.58285318 252.78969761 59.625 249.5 C56.32149709 246.1180437 52.39975238 244.26105336 48.1875 242.1875 C46.41262139 241.24203842 44.6377761 240.29650607 42.8651886 239.34675598 C41.02261364 238.36624689 39.1709648 237.40482429 37.31738281 236.4453125 C31.45521588 233.3870583 25.77167605 230.02051894 20.0625 226.6875 C18.0615715 225.53450768 16.0602727 224.38215773 14.05859375 223.23046875 C6.22667609 218.68919287 -1.57165668 214.09020195 -9.375 209.5 C-9.045 236.23 -8.715 262.96 -8.375 290.5 C-4.415 292.48 -4.415 292.48 -0.375 294.5 C4.10586637 298.88751499 4.96654201 301.80439957 5.1875 308.0625 C4.90569831 314.88836326 3.11363501 318.1389873 -1.8125 322.8125 C-4.375 324.5 -4.375 324.5 -9.375 325.5 C-9.375 333.42 -9.375 341.34 -9.375 349.5 C-7.395 349.83 -5.415 350.16 -3.375 350.5 C4.40102154 353.20343927 10.26590704 358.44299795 14 365.75 C17.12373496 372.54072818 17.96716042 379.75137809 15.90625 387.04296875 C14.94238169 389.30106346 13.86855888 391.38391128 12.625 393.5 C12.26277344 394.13808594 11.90054688 394.77617187 11.52734375 395.43359375 C7.31680449 402.07054547 1.06819467 405.40746192 -6.375 407.5 C-16.72444568 408.66492576 -24.03138625 407.17686034 -32.3671875 401.03125 C-38.38731571 395.76040813 -41.61807146 388.43331497 -42.8203125 380.59765625 C-43.17883534 372.07676354 -40.45746306 365.77830146 -35.125 359.25 C-29.32854337 353.04481886 -24.86415083 350.71273583 -16.375 349.5 C-16.375 341.58 -16.375 333.66 -16.375 325.5 C-18.025 325.17 -19.675 324.84 -21.375 324.5 C-23.32421875 323.265625 -23.32421875 323.265625 -25.0625 321.75 C-25.64386719 321.26015625 -26.22523438 320.7703125 -26.82421875 320.265625 C-30.88738448 315.63955218 -30.86562825 310.32789993 -30.75 304.4453125 C-30.19041606 300.05024695 -28.65578568 297.42985587 -25.375 294.5 C-19.8108209 290.5 -19.8108209 290.5 -16.375 290.5 C-16.375 263.77 -16.375 237.04 -16.375 209.5 C-38.5768967 222.28350678 -38.5768967 222.28350678 -60.6875 235.22265625 C-64.42648754 237.41247026 -68.20138711 239.46755898 -72.0625 241.43359375 C-80.80134271 245.40238479 -80.80134271 245.40238479 -86.66015625 252.4140625 C-86.86759872 255.21264995 -86.68697665 257.71895101 -86.375 260.5 C-88.22462841 265.94612809 -91.73679814 269.26380007 -96.375 272.5 C-99.30549131 273.47683044 -101.49436138 273.76248716 -104.5625 273.875 C-105.46355469 273.92398437 -106.36460937 273.97296875 -107.29296875 274.0234375 C-111.67562485 273.27910807 -114.7743206 271.01723378 -118.375 268.5 C-119.13176025 268.95439453 -119.13176025 268.95439453 -119.90380859 269.41796875 C-122.18319079 270.78318269 -124.46651668 272.14165783 -126.75 273.5 C-127.5440625 273.97695313 -128.338125 274.45390625 -129.15625 274.9453125 C-129.91679687 275.39648438 -130.67734375 275.84765625 -131.4609375 276.3125 C-132.1626709 276.73144531 -132.8644043 277.15039062 -133.58740234 277.58203125 C-135.375 278.5 -135.375 278.5 -137.375 278.5 C-137.045 279.44875 -136.715 280.3975 -136.375 281.375 C-133.90905061 290.27386084 -135.29741893 298.29449736 -139.375 306.5 C-144.40178165 314.12489352 -151.53218165 318.51429442 -160.375 320.5 C-168.69680557 321.60161063 -175.63404778 319.63019087 -182.60546875 315.02734375 C-189.0488895 309.91370964 -193.66257482 302.26252775 -194.68359375 294.00390625 C-195.09165943 284.69258932 -192.63097442 277.45191993 -186.51171875 270.33203125 C-180.37588208 264.56508256 -173.89167995 261.33556924 -165.4375 261 C-156.74476015 261.33178396 -150.01846182 264.08162023 -144.04296875 270.42578125 C-142.39537485 271.71251358 -142.39537485 271.71251358 -140.1640625 271.4140625 C-133.86762995 269.35052578 -127.21368442 266.09795385 -122.375 261.5 C-121.42548973 258.61597347 -121.61514668 256.89431897 -122.0859375 253.921875 C-122.58178735 249.76745731 -120.85516935 246.74440758 -118.375 243.5 C-113.58310017 239.12194607 -109.18397996 237.15431565 -102.5703125 237.203125 C-99.37635092 237.63504863 -96.91804737 238.95332613 -94.13671875 240.52734375 C-92.23179145 241.64867707 -92.23179145 241.64867707 -89.375 242.5 C-87.19839481 241.65207439 -87.19839481 241.65207439 -84.89453125 240.24609375 C-83.99009277 239.72845459 -83.0856543 239.21081543 -82.15380859 238.67749023 C-81.17492676 238.10329346 -80.19604492 237.52909668 -79.1875 236.9375 C-78.16736816 236.34976807 -77.14723633 235.76203613 -76.09619141 235.15649414 C-72.84933249 233.28189352 -69.61148652 231.39244357 -66.375 229.5 C-64.33477625 228.31225806 -62.2944147 227.12475278 -60.25390625 225.9375 C-56.2679559 223.61556522 -52.28561609 221.28756253 -48.3046875 218.95703125 C-39.36841176 213.73459007 -30.3729127 208.61529065 -21.375 203.5 C-24.68038577 200.74253001 -27.96442457 198.47104527 -31.734375 196.3984375 C-32.75885742 195.83108887 -33.78333984 195.26374023 -34.83886719 194.67919922 C-35.92329102 194.08381348 -37.00771484 193.48842773 -38.125 192.875 C-45.50527098 188.78461452 -52.86925007 184.68296216 -60.125 180.375 C-60.77460693 179.99230957 -61.42421387 179.60961914 -62.09350586 179.21533203 C-65.09219746 177.44846201 -68.08574562 175.67429767 -71.06689453 173.87792969 C-73.93202539 172.15408163 -76.80883102 170.45112114 -79.6875 168.75 C-80.59016602 168.19940918 -81.49283203 167.64881836 -82.42285156 167.08154297 C-83.69273926 166.33735107 -83.69273926 166.33735107 -84.98828125 165.578125 C-86.11423706 164.90378418 -86.11423706 164.90378418 -87.26293945 164.21582031 C-89.37523459 163.25250985 -89.37523459 163.25250985 -91.44604492 164.26855469 C-92.40087769 164.87812012 -92.40087769 164.87812012 -93.375 165.5 C-98.82105384 168.22302692 -102.40514874 169.06855726 -108.375 168.5 C-113.40985004 166.68745399 -117.0956426 163.6755793 -120.375 159.5 C-122.83442462 154.24577468 -123.21552812 149.02158435 -121.375 143.5 C-122.23867187 143.24605469 -123.10234375 142.99210938 -123.9921875 142.73046875 C-128.59978251 141.05449597 -132.44554085 138.48193399 -136.5703125 135.86328125 C-139.17614049 134.31681604 -139.17614049 134.31681604 -141.5078125 134.61328125 C-143.65857547 135.63466869 -145.29331612 136.85364273 -147.125 138.375 C-153.78027454 143.46432759 -159.78527504 145.21776381 -168.21484375 144.97265625 C-176.55410673 143.72537464 -183.81496959 139.32842542 -188.97265625 132.6953125 C-193.9759468 124.86286323 -195.74476075 117.3035224 -193.90234375 108.15234375 C-191.38151745 99.35209385 -186.26318947 93.42425744 -178.52734375 88.6875 C-171.7567271 84.95198737 -165.06102338 84.41159123 -157.56640625 86.15234375 C-149.64576716 88.7119955 -143.35854198 92.84615944 -139 100.0625 C-134.51445366 109.55115572 -134.41602615 117.51346327 -137.375 127.5 C-136.70082031 127.74492187 -136.02664062 127.98984375 -135.33203125 128.2421875 C-131.73409286 129.77261836 -128.43623937 131.65843308 -125.0625 133.625 C-124.41732422 133.99753906 -123.77214844 134.37007812 -123.10742188 134.75390625 C-121.52824055 135.66632213 -119.95138136 136.58275509 -118.375 137.5 C-117.92511719 137.1390625 -117.47523437 136.778125 -117.01171875 136.40625 C-111.23575249 132.23922023 -106.39647542 131.42528437 -99.375 132.5 C-94.59726634 133.80375444 -91.36385923 135.99814122 -88.4375 140 C-86.38550646 143.65337588 -86.34251568 146.15631578 -86.5234375 150.29296875 C-86.23499101 154.25993857 -85.96904695 155.91886297 -83.09448242 158.73095703 C-79.80232884 160.81141335 -76.42583209 162.59488164 -72.9375 164.3125 C-71.6685753 164.97901253 -70.40215806 165.65031879 -69.13818359 166.32617188 C-66.5267835 167.7182186 -63.90597881 169.08950285 -61.27685547 170.44775391 C-55.23414512 173.59457396 -49.37899128 177.05943663 -43.5 180.5 C-34.80979808 185.53211581 -26.09405206 190.51768453 -17.375 195.5 C-16.88 155.405 -16.88 155.405 -16.375 114.5 C-18.025 114.17 -19.675 113.84 -21.375 113.5 C-23.32421875 112.265625 -23.32421875 112.265625 -25.0625 110.75 C-25.93455078 110.01523438 -25.93455078 110.01523438 -26.82421875 109.265625 C-30.85120112 104.68074834 -30.91772612 99.35623913 -30.82421875 93.515625 C-29.93314553 87.53381176 -26.39051672 83.99991942 -21.6875 80.5 C-19.375 79.5 -19.375 79.5 -16.375 79.5 C-16.375 71.58 -16.375 63.66 -16.375 55.5 C-19.015 55.17 -21.655 54.84 -24.375 54.5 C-32.31170151 50.9712204 -37.8250552 44.48968806 -41.25 36.625 C-43.81543015 28.82181663 -42.8792574 20.84035737 -39.375 13.5 C-31.27726234 -0.64508662 -15.09742909 -6.98849548 0 0 Z M-21.375 20.5 C-23.1384617 23.41354542 -23.38337516 25.09799234 -23.3125 28.5 C-22.10217283 32.37304693 -20.56624462 34.01792085 -17.375 36.5 C-13.66031588 37.76457332 -11.91584542 37.68028181 -8.1875 36.4375 C-4.77519535 34.08680124 -3.68103859 32.41811578 -2.375 28.5 C-2.375 24.51139939 -3.08853636 22.87914306 -5.5 19.6875 C-11.38825932 15.20730269 -15.91430288 15.67426766 -21.375 20.5 Z M-14.375 94.5 C-14.705 95.82 -15.035 97.14 -15.375 98.5 C-14.055 98.83 -12.735 99.16 -11.375 99.5 C-11.045 98.18 -10.715 96.86 -10.375 95.5 C-11.695 95.17 -13.015 94.84 -14.375 94.5 Z M-172.375 107.5 C-174.97348021 110.51758992 -175.375 111.99588616 -175.375 116 C-174.16169043 120.24658348 -172.91781383 121.88139847 -169.375 124.5 C-165.01229911 125.84847118 -163.18425094 125.89699103 -159.0625 123.875 C-156.23555553 121.37677 -155.15851105 120.1563849 -154.375 116.5 C-154.45790575 112.52052386 -155.10321914 110.84943253 -157.5625 107.6875 C-162.89146193 103.54275184 -166.82321547 103.79881032 -172.375 107.5 Z M131.625 107.5 C129.41004804 110.71525285 128.625 112.65544281 128.625 116.5625 C129.92634015 120.38518669 131.41406327 122.05689596 134.625 124.5 C139.02023152 125.85852611 140.81288951 125.91371666 144.9375 123.8125 C148.13955916 121.16081668 148.13955916 121.16081668 149.625 117.5 C149.54680259 113.19914245 149.05849606 111.06973768 146.4375 107.625 C141.11124524 103.60071862 137.10064351 103.72789003 131.625 107.5 Z M-105.375 147.5 C-105.705 148.82 -106.035 150.14 -106.375 151.5 C-105.055 151.83 -103.735 152.16 -102.375 152.5 C-102.375 151.18 -102.375 149.86 -102.375 148.5 C-103.365 148.17 -104.355 147.84 -105.375 147.5 Z M77.625 147.5 C76.965 148.82 76.305 150.14 75.625 151.5 C78.1 151.995 78.1 151.995 80.625 152.5 C80.295 150.85 79.965 149.2 79.625 147.5 C78.965 147.5 78.305 147.5 77.625 147.5 Z M-106.375 253.5 C-106.045 255.15 -105.715 256.8 -105.375 258.5 C-104.055 257.84 -102.735 257.18 -101.375 256.5 C-101.705 255.51 -102.035 254.52 -102.375 253.5 C-103.695 253.5 -105.015 253.5 -106.375 253.5 Z M76.625 253.5 C76.625 254.82 76.625 256.14 76.625 257.5 C77.945 257.5 79.265 257.5 80.625 257.5 C80.625 256.18 80.625 254.86 80.625 253.5 C79.305 253.5 77.985 253.5 76.625 253.5 Z M-173.375 284.5 C-175.48357453 287.15863745 -175.37523614 288.48701207 -175.3125 291.9375 C-174.18148509 296.23535664 -172.90276718 297.83457591 -169.375 300.5 C-165.66031588 301.76457332 -163.91584542 301.68028181 -160.1875 300.4375 C-156.77519535 298.08680124 -155.68103859 296.41811578 -154.375 292.5 C-154.375 288.51139939 -155.08853636 286.87914306 -157.5 283.6875 C-163.42746667 279.17747101 -167.84636981 279.74280658 -173.375 284.5 Z M130.625 284.5 C129.04547802 288.11973786 128.34994324 290.31725592 129.25 294.1875 C131.4921667 297.95841672 133.25723139 300.0539885 137.5 301.4375 C141.43378804 301.51617576 143.36253635 300.67497577 146.625 298.5 C149.22348021 295.48241008 149.625 294.00411384 149.625 290 C148.41169043 285.75341652 147.16781383 284.11860153 143.625 281.5 C137.94042095 279.74294829 134.98232718 280.44667239 130.625 284.5 Z M-14.375 305.5 C-14.705 306.82 -15.035 308.14 -15.375 309.5 C-14.055 309.83 -12.735 310.16 -11.375 310.5 C-11.045 309.18 -10.715 307.86 -10.375 306.5 C-11.695 306.17 -13.015 305.84 -14.375 305.5 Z M-21.375 372.5 C-23.39657538 375.16480391 -23.375 376.5295706 -23.375 379.9375 C-22.07220522 384.57870639 -20.45913426 386.00414018 -16.375 388.5 C-11.78930434 389.31887423 -9.98548728 388.87307556 -6 386.4375 C-2.87257166 382.93775876 -2.29173815 381.16266365 -2.375 376.5 C-3.95064499 372.85113792 -5.84249662 370.36437678 -9.375 368.5 C-14.850572 367.80310902 -17.52088344 368.53576582 -21.375 372.5 Z " fill="#5BADF3" transform="translate(237.375,11.5)"/>
<path d="M0 0 C5.00827912 4.07650626 8.37560576 9.03288913 9.38671875 15.45703125 C9.69474779 22.37175205 8.0614633 27.58995425 3.421875 32.7578125 C-1.0091471 36.88944121 -5.22452984 38.95730486 -11.41796875 39.02734375 C-18.69456319 38.59801367 -23.84772851 36.58195281 -28.875 31.125 C-31 28 -31 28 -32 22 C-38.6 22 -45.2 22 -52 22 C-52.495 24.475 -52.495 24.475 -53 27 C-56.11893074 31.45561535 -58.71741479 34.23913826 -64 36 C-71.16465032 36.87796774 -76.20205287 36.37804171 -82 32 C-86.08698807 27.69209365 -87.79512567 24.082889 -88.375 18.1875 C-88.18780999 11.98683102 -85.47588795 7.61644871 -81.375 3.125 C-76.34895887 -0.03954442 -71.56010633 -1.40587531 -65.6015625 -0.7265625 C-59.33177633 0.92112875 -55.58104536 4.71369495 -52 10 C-51.505 11.485 -51.505 11.485 -51 13 C-44.73 13.33 -38.46 13.66 -32 14 C-31.67 12.02 -31.34 10.04 -31 8 C-24.04573039 -3.2171976 -11.51379353 -6.54705907 0 0 Z " fill="#2B376D" transform="translate(402,195)"/>
<path d="M0 0 C4.95298786 4.39014833 7.69399557 7.46997784 9 14 C15.27 14 21.54 14 28 14 C28.33 12.35 28.66 10.7 29 9 C30.26953125 7.05078125 30.26953125 7.05078125 31.8125 5.3125 C32.31394531 4.73113281 32.81539063 4.14976562 33.33203125 3.55078125 C37.1934055 -0.03930207 41.80458409 -1.06402801 47 -1 C52.98337872 0.10692506 57.16160872 2.14556397 61 7 C64.47155188 12.14747348 64.69809882 16.98258486 64 23 C62.21984261 28.4451873 58.611739 31.78226393 54 35 C48.73449666 36.75516778 42.90396527 37.07215936 37.640625 35.12890625 C32.71596723 32.30555922 30.3244813 29.13322953 28 24 C28 23.34 28 22.68 28 22 C21.73 22.33 15.46 22.66 9 23 C7.68 25.64 6.36 28.28 5 31 C1.22237789 35.56132459 -3.113767 38.10210005 -9 39 C-16.06954484 39.18543068 -21.66486069 37.76605779 -27 33 C-31.7305489 27.70460944 -33.33893056 22.04100906 -33 15 C-32.0509466 8.32390024 -29.22824632 4.49112756 -23.96875 0.375 C-16.63116837 -4.74966019 -7.69987209 -4.37835864 0 0 Z " fill="#2B376D" transform="translate(71,195)"/>
<path d="M0 0 C4.88252747 4.63214144 8.22705905 8.67500488 8.54296875 15.63671875 C8.26634352 22.32695128 6.2026512 26.62620473 1.4375 31.3125 C-1.59718414 33.55238591 -3.54521197 34.36278966 -7.328125 34.17578125 C-10.84935947 34.04749507 -13.24038821 34.07646624 -16.5625 35.3125 C-20.32596627 39.58413115 -22.43006717 45.10058328 -24.5625 50.3125 C-23.634375 51.42625 -23.634375 51.42625 -22.6875 52.5625 C-17.78740688 58.90379698 -17.83545787 64.42834183 -18.5625 72.3125 C-19.81001514 77.49512999 -22.42235606 80.55659313 -26.625 83.75 C-32.36076653 87.20278051 -38.2869007 88.14729443 -44.86328125 86.86328125 C-51.02700447 84.8551379 -55.00988315 80.64142527 -58.5625 75.3125 C-60.47811899 69.56564302 -60.77896949 62.5328632 -58.62109375 56.8203125 C-55.19300767 51.12474629 -50.8902317 47.44616351 -44.5625 45.3125 C-41.73828125 45.08203125 -41.73828125 45.08203125 -38.875 45.125 C-37.44607422 45.13466797 -37.44607422 45.13466797 -35.98828125 45.14453125 C-33.5625 45.3125 -33.5625 45.3125 -31.5625 46.3125 C-31.29695313 45.61769531 -31.03140625 44.92289062 -30.7578125 44.20703125 C-29.45646924 41.05573924 -27.97546617 38.04249829 -26.4375 35 C-25.89867187 33.93136719 -25.35984375 32.86273438 -24.8046875 31.76171875 C-24.39476562 30.95347656 -23.98484375 30.14523437 -23.5625 29.3125 C-24.201875 28.549375 -24.84125 27.78625 -25.5 27 C-29.23794151 22.12934894 -29.16836867 17.23069539 -28.5625 11.3125 C-27.28290998 6.60165267 -25.0228239 3.25440937 -21.125 0.3125 C-14.63786849 -3.27793864 -6.58868547 -3.12095627 0 0 Z " fill="#2B376D" transform="translate(182.5625,284.6875)"/>
<path d="M0 0 C4.8688962 2.40241589 7.97667261 6.39173509 9.84375 11.37890625 C10.80612606 17.84057411 10.21404155 22.71681644 6.84375 28.37890625 C5.60762971 31.84360878 5.68155417 33.03462682 7.27734375 36.421875 C7.93863281 37.45957031 8.59992188 38.49726563 9.28125 39.56640625 C12.84375 45.22039353 12.84375 45.22039353 12.84375 47.37890625 C13.50375 47.04890625 14.16375 46.71890625 14.84375 46.37890625 C21.97108844 45.64697419 27.97397298 46.0299351 33.84375 50.37890625 C38.85448111 55.15955276 41.24732559 60.13395771 41.875 66.9375 C41.80675574 72.26908296 39.87499225 76.72155263 37.09375 81.19140625 C32.04966615 86.09537666 27.34017127 88.05770302 20.39453125 88.46875 C13.07019028 88.21077168 8.27524953 85.49237385 3.25390625 80.29296875 C-0.97000971 74.55967562 -0.9015298 68.22838246 -0.15625 61.37890625 C1.23232467 57.26558128 3.44881987 53.97130145 5.84375 50.37890625 C2.62379656 42.89859492 2.62379656 42.89859492 -2.15625 36.37890625 C-5.39438936 35.29664042 -7.85410241 35.30686876 -11.25 35.4140625 C-15.86400103 35.35824797 -18.8401055 33.47131088 -22.15625 30.37890625 C-25.76729908 26.05196406 -27.43567091 21.01031238 -27.15625 15.37890625 C-25.74787875 9.14513188 -22.87210623 4.34790202 -17.65625 0.56640625 C-11.93857751 -1.37351834 -5.85174502 -1.68555699 0 0 Z " fill="#2B376D" transform="translate(285.15625,283.62109375)"/>
<path d="M0 0 C5.8377477 4.44780777 10.40031019 9.17775818 11.53125 16.64453125 C11.8404034 24.41201043 9.88632397 29.57987573 4.671875 35.30859375 C-0.2776786 39.39858747 -3.93928594 40.18495862 -10.25 39.8125 C-14.97463923 39.92452149 -14.97463923 39.92452149 -18.796875 42.40820312 C-21.59553643 46.30818966 -23.53919801 50.58153248 -25.375 55 C-24.735625 55.928125 -24.09625 56.85625 -23.4375 57.8125 C-19.84723437 63.36109233 -19.59821446 68.53855662 -20.375 75 C-22.54578673 80.65153096 -26.02480092 84.15414942 -31.375 87 C-35.5330633 88.60957289 -40.19417014 88.72556127 -44.4296875 87.31640625 C-49.80710422 84.87120355 -53.73489236 81.71182255 -56.19140625 76.15234375 C-57.86084913 70.87102446 -57.55246744 66.08960886 -55.375 61 C-52.78861813 57.13369069 -49.94217414 53.98979419 -46 51.5 C-41.63070401 50.66775314 -36.44529187 49.96485406 -32.375 52 C-32.10945313 51.30519531 -31.84390625 50.61039063 -31.5703125 49.89453125 C-30.26896924 46.74323924 -28.78796617 43.72999829 -27.25 40.6875 C-26.71117187 39.61886719 -26.17234375 38.55023438 -25.6171875 37.44921875 C-25.20726562 36.64097656 -24.79734375 35.83273438 -24.375 35 C-24.99375 34.2575 -25.6125 33.515 -26.25 32.75 C-30.94615706 26.67262028 -31.15271295 21.57297984 -30.375 14 C-28.44827336 7.31119331 -24.39694724 3.50274009 -18.5859375 -0.11328125 C-12.96483946 -2.36767923 -5.6964695 -1.68784282 0 0 Z " fill="#2B376D" transform="translate(315.375,55)"/>
<path d="M0 0 C5.33020742 2.82395095 9.53058318 7.73978784 11.76953125 13.3125 C12.63823838 21.03995294 12.43587812 26.99920718 7.76953125 33.3125 C7.10953125 34.3025 6.44953125 35.2925 5.76953125 36.3125 C6.34703125 37.29992187 6.92453125 38.28734375 7.51953125 39.3046875 C8.26975725 40.59882735 9.01974493 41.89310537 9.76953125 43.1875 C10.15109375 43.83847656 10.53265625 44.48945312 10.92578125 45.16015625 C13.76953125 50.0859375 13.76953125 50.0859375 13.76953125 52.3125 C14.42953125 51.9825 15.08953125 51.6525 15.76953125 51.3125 C22.28152787 50.48836765 27.37112803 51.55442792 32.76953125 55.3125 C36.66516099 59.20812974 38.72275697 63.12665148 38.8046875 68.70703125 C38.37847863 75.64072188 36.51595457 79.77734002 31.33203125 84.5625 C26.44234195 87.90180001 22.7189603 88.82538181 16.76953125 88.3125 C10.66764641 86.20840178 6.24066026 83.84892932 2.95703125 78.1875 C1.27931695 73.6489434 0.88563341 69.07081672 1.76953125 64.3125 C2.71920202 62.86161411 3.7217171 61.4441765 4.76953125 60.0625 C6.32829312 57.94255052 6.32829312 57.94255052 6.76953125 55.3125 C4.73174962 50.06605668 1.79638264 44.33935139 -2.23046875 40.3125 C-4.27283231 40.34505942 -6.31465699 40.41399768 -8.35546875 40.5 C-14.42543745 40.53320552 -17.47723955 40.07547312 -22.23046875 36.3125 C-27.20976913 31.31985029 -29.5255957 27.1309033 -29.66796875 20.0625 C-29.57025658 13.84381814 -28.40205147 9.92859564 -24.23046875 5.3125 C-17.34290402 -1.07109658 -9.16105608 -2.82372307 0 0 Z " fill="#2B376E" transform="translate(152.23046875,54.6875)"/>
<path d="M0 0 C4.29 0 8.58 0 13 0 C14.65 10.23 16.3 20.46 18 31 C19.27525969 21.54666542 19.27525969 21.54666542 20.54272461 12.09228516 C20.78261108 10.33343994 20.78261108 10.33343994 21.02734375 8.5390625 C21.18968506 7.33459473 21.35202637 6.13012695 21.51928711 4.88916016 C22 2 22 2 23 0 C27.29 0 31.58 0 36 0 C36 18.15 36 36.3 36 55 C33.03 55 30.06 55 27 55 C26.67 46.09 26.34 37.18 26 28 C24.68 36.91 23.36 45.82 22 55 C19.03 55 16.06 55 13 55 C11.68 46.09 10.36 37.18 9 28 C8.67 36.91 8.34 45.82 8 55 C5.36 55 2.72 55 0 55 C0 36.85 0 18.7 0 0 Z " fill="#2B366C" transform="translate(84,546)"/>
<path d="M0 0 C4.29 0 8.58 0 13 0 C14.65 10.23 16.3 20.46 18 31 C19.27445255 21.92071995 19.27445255 21.92071995 20.54272461 12.84057617 C20.78261108 11.1463855 20.78261108 11.1463855 21.02734375 9.41796875 C21.18968506 8.26063232 21.35202637 7.1032959 21.51928711 5.91088867 C22 3 22 3 23 0 C27.29 0 31.58 0 36 0 C36 18.15 36 36.3 36 55 C33.03 55 30.06 55 27 55 C26.505 42.13 26.505 42.13 26 29 C24.68 37.58 23.36 46.16 22 55 C19.03 55 16.06 55 13 55 C11.68 46.09 10.36 37.18 9 28 C8.67 36.91 8.34 45.82 8 55 C5.36 55 2.72 55 0 55 C0 36.85 0 18.7 0 0 Z " fill="#2B366C" transform="translate(311,467)"/>
<path d="M0 0 C3.96 0 7.92 0 12 0 C13.98 7.26 15.96 14.52 18 22 C18.33 14.74 18.66 7.48 19 0 C21.97 0 24.94 0 28 0 C28 18.15 28 36.3 28 55 C24.7 55 21.4 55 18 55 C17.2271035 52.25056581 16.45666429 49.50047859 15.6875 46.75 C15.47416016 45.99203125 15.26082031 45.2340625 15.04101562 44.453125 C13.23708667 37.99128995 11.62908186 31.51632744 10 25 C9.67 34.9 9.34 44.8 9 55 C6.03 55 3.06 55 0 55 C0 36.85 0 18.7 0 0 Z " fill="#2B366C" transform="translate(237,467)"/>
<path d="M0 0 C3.96 0 7.92 0 12 0 C12.81313676 2.9164905 13.6255335 5.83318369 14.4375 8.75 C14.66759766 9.575 14.89769531 10.4 15.13476562 11.25 C15.35712891 12.04921875 15.57949219 12.8484375 15.80859375 13.671875 C16.01282959 14.4050293 16.21706543 15.13818359 16.42749023 15.89355469 C16.97876341 17.92186384 17.49021688 19.96086751 18 22 C18.33 14.74 18.66 7.48 19 0 C21.97 0 24.94 0 28 0 C28 18.15 28 36.3 28 55 C24.7 55 21.4 55 18 55 C15.36 45.1 12.72 35.2 10 25 C9.67 34.9 9.34 44.8 9 55 C6.03 55 3.06 55 0 55 C0 36.85 0 18.7 0 0 Z " fill="#2B366D" transform="translate(307,546)"/>
<path d="M0 0 C3.96 0 7.92 0 12 0 C13.98 7.92 15.96 15.84 18 24 C18.33 16.08 18.66 8.16 19 0 C21.64 0 24.28 0 27 0 C27 18.15 27 36.3 27 55 C24.03 55 21.06 55 18 55 C15.58811471 48.05406008 13.6325374 41.05918481 11.8125 33.9375 C10.884375 30.328125 9.95625 26.71875 9 23 C8.67 33.56 8.34 44.12 8 55 C5.36 55 2.72 55 0 55 C0 36.85 0 18.7 0 0 Z " fill="#2B366C" transform="translate(156,546)"/>
<path d="M0 0 C18 0 18 0 24 4 C26.4111811 8.71276305 26.62256489 13.80293658 26 19 C25.18816782 21.47773059 24.1520173 23.64796467 23 26 C23 26.66 23 27.32 23 28 C23.66 28.66 24.32 29.32 25 30 C25.99415343 32.97885103 26.18304176 35.85983544 26.31640625 38.984375 C26.35830078 39.91894531 26.40019531 40.85351562 26.44335938 41.81640625 C26.48267578 42.78449219 26.52199219 43.75257813 26.5625 44.75 C26.60568359 45.73355469 26.64886719 46.71710937 26.69335938 47.73046875 C26.79921949 50.15348927 26.90009312 52.57672672 27 55 C23.7 55 20.4 55 17 55 C16.11360611 52.34081834 15.82010975 50.51935359 15.68359375 47.76953125 C15.64169922 46.96708984 15.59980469 46.16464844 15.55664062 45.33789062 C15.51732422 44.50451172 15.47800781 43.67113281 15.4375 42.8125 C15.39431641 41.96751953 15.35113281 41.12253906 15.30664062 40.25195312 C15.20068482 38.16815567 15.0998498 36.08409897 15 34 C13.02 33.34 11.04 32.68 9 32 C9 39.59 9 47.18 9 55 C6.03 55 3.06 55 0 55 C0 36.85 0 18.7 0 0 Z M9 9 C9 13.62 9 18.24 9 23 C10.65 23 12.3 23 14 23 C16.26150753 21.16584415 16.26150753 21.16584415 16.23046875 18.43359375 C16.21628906 17.44488281 16.20210938 16.45617187 16.1875 15.4375 C16.18105469 14.44621094 16.17460937 13.45492187 16.16796875 12.43359375 C16.27125434 10.05234128 16.27125434 10.05234128 15 9 C13.02 9 11.04 9 9 9 Z " fill="#2C376C" transform="translate(262,546)"/>
<path d="M0 0 C17 0 17 0 23 3 C26.04011774 6.74563029 26.40832546 9.74556772 26.375 14.5 C26.38273437 15.6034375 26.39046875 16.706875 26.3984375 17.84375 C25.96334438 21.29037004 24.85215231 23.1155005 23 26 C23.66666667 28.16666667 23.66666667 28.16666667 25 30 C25.9731681 32.9195043 26.1929546 35.05444951 26.31640625 38.10546875 C26.35830078 39.08837891 26.40019531 40.07128906 26.44335938 41.08398438 C26.48267578 42.10814453 26.52199219 43.13230469 26.5625 44.1875 C26.60568359 45.22326172 26.64886719 46.25902344 26.69335938 47.32617188 C26.79944263 49.88395702 26.90022586 52.44196098 27 55 C23.7 55 20.4 55 17 55 C16.67 47.74 16.34 40.48 16 33 C13.69 32.67 11.38 32.34 9 32 C9 39.59 9 47.18 9 55 C6.03 55 3.06 55 0 55 C0 36.85 0 18.7 0 0 Z M9 9 C9 13.62 9 18.24 9 23 C12.465 22.505 12.465 22.505 16 22 C17.17287572 15.31468008 17.17287572 15.31468008 15 9 C13.02 9 11.04 9 9 9 Z " fill="#2B366C" transform="translate(383,467)"/>
<path d="M0 0 C3.82158012 2.43191462 5.32820787 4.48462362 6.75 8.75 C6.87095436 11.48375175 6.93812986 14.19121138 6.953125 16.92578125 C6.95882507 17.72856003 6.96452515 18.53133881 6.97039795 19.35844421 C6.97984039 21.05722743 6.98637893 22.7560289 6.99023438 24.45483398 C6.99992504 27.04248376 7.03094858 29.62933396 7.0625 32.21679688 C7.06903201 33.86978697 7.07428171 35.52278272 7.078125 37.17578125 C7.0904718 37.94473221 7.1028186 38.71368317 7.11553955 39.50593567 C7.09237004 45.14666295 6.02741846 49.42850248 1.93359375 53.6015625 C-0.90176138 55.09278684 -2.99403127 55.14916244 -6.1875 55.125 C-7.20714844 55.13273438 -8.22679687 55.14046875 -9.27734375 55.1484375 C-12.82757191 54.67258563 -14.51838919 54.08873954 -17.25 51.75 C-21.1972025 44.81014725 -20.67385757 37.19418411 -20.58618164 29.43188477 C-20.56251848 27.18925127 -20.56564412 24.94780557 -20.57226562 22.70507812 C-20.5466786 16.07620031 -20.51073531 10.0764557 -18.25 3.75 C-12.85799471 -1.50374874 -7.11063318 -2.73485892 0 0 Z M-8.25 7.75 C-10.76704805 10.26704805 -10.49669599 11.82672899 -10.52789307 15.26159668 C-10.5238446 16.01058228 -10.51979614 16.75956787 -10.515625 17.53125 C-10.51753845 18.30053833 -10.5194519 19.06982666 -10.52142334 19.86242676 C-10.52278508 21.4898308 -10.51908939 23.1172457 -10.51074219 24.74462891 C-10.50004221 27.24015631 -10.51063751 29.73496382 -10.5234375 32.23046875 C-10.5221159 33.80989743 -10.5195535 35.38932566 -10.515625 36.96875 C-10.51967346 37.7177356 -10.52372192 38.46672119 -10.52789307 39.23840332 C-10.63187202 43.45311148 -10.63187202 43.45311148 -8.25 46.75 C-6.2019572 46.6549261 -6.2019572 46.6549261 -4.25 45.75 C-1.79500551 42.06750827 -1.99225086 40.20691904 -1.984375 35.81640625 C-1.98246155 35.14206039 -1.9805481 34.46771454 -1.97857666 33.77293396 C-1.97721718 32.34821194 -1.9808971 30.92347743 -1.98925781 29.4987793 C-1.99994462 27.323771 -1.98936375 25.14959174 -1.9765625 22.97460938 C-1.97788446 21.58853985 -1.98044762 20.20247084 -1.984375 18.81640625 C-1.98663086 17.55771729 -1.98888672 16.29902832 -1.99121094 15.00219727 C-2.23243757 11.97070674 -2.64887208 10.28723921 -4.25 7.75 C-5.57 7.75 -6.89 7.75 -8.25 7.75 Z " fill="#2B376C" transform="translate(250.25,546.25)"/>
<path d="M0 0 C17 0 17 0 23 3 C26.64827425 7.21896479 26.45287995 11.49734552 26.43359375 16.80859375 C26.4388356 17.65293472 26.44407745 18.4972757 26.44947815 19.36720276 C26.45588499 21.14819238 26.45457869 22.92922438 26.44604492 24.71020508 C26.43753787 27.42541364 26.46630831 30.13851482 26.49804688 32.85351562 C26.49965923 34.58854104 26.4990807 36.32357016 26.49609375 38.05859375 C26.51294472 39.26823036 26.51294472 39.26823036 26.53013611 40.50230408 C26.46564468 45.75608824 25.62178424 48.92631631 22 53 C17 55 17 55 0 55 C0 36.85 0 18.7 0 0 Z M9 9 C9 21.21 9 33.42 9 46 C10.98 46 12.96 46 15 46 C17.45982759 42.31025862 17.25777165 40.43136906 17.265625 36.03125 C17.26849518 35.01617371 17.26849518 35.01617371 17.27142334 33.98059082 C17.27278265 32.55167264 17.26910394 31.12274201 17.26074219 29.69384766 C17.25003846 27.50785559 17.26064544 25.32268528 17.2734375 23.13671875 C17.27211586 21.74739402 17.26955337 20.3580698 17.265625 18.96875 C17.26224121 17.07286133 17.26224121 17.07286133 17.25878906 15.13867188 C17.24177519 11.83783953 17.24177519 11.83783953 15 9 C13.02 9 11.04 9 9 9 Z " fill="#2B366D" transform="translate(87,467)"/>
<path d="M0 0 C4.65374736 3.36654064 5.70897165 6.53482376 7 12 C7.3474373 16.42434384 7.32971098 20.84258007 7.31567383 25.27832031 C7.31251792 27.3631646 7.33600726 29.44658086 7.36132812 31.53125 C7.43792676 47.76870553 7.43792676 47.76870553 2.375 54 C-2.61742022 56.10207167 -7.74670737 56.80502134 -12.875 54.8125 C-17.04469381 52.39407759 -18.49436257 50.51691229 -20 46 C-20.12095436 43.26624825 -20.18812986 40.55878862 -20.203125 37.82421875 C-20.20882507 37.02143997 -20.21452515 36.21866119 -20.22039795 35.39155579 C-20.22984039 33.69277257 -20.23637893 31.9939711 -20.24023438 30.29516602 C-20.24992504 27.70751624 -20.28094858 25.12066604 -20.3125 22.53320312 C-20.31903201 20.88021303 -20.32428171 19.22721728 -20.328125 17.57421875 C-20.3404718 16.80526779 -20.3528186 16.03631683 -20.36553955 15.24406433 C-20.34575142 10.42655161 -19.60772671 7.19917188 -17 3 C-12.04999842 -1.63064664 -6.32394339 -1.62615687 0 0 Z M-10 9 C-11.16738351 12.50215053 -11.12951572 15.27447223 -11.1328125 18.96875 C-11.13376923 19.64546753 -11.13472595 20.32218506 -11.13571167 21.01940918 C-11.13639132 22.44832451 -11.13455201 23.87724296 -11.13037109 25.30615234 C-11.12501975 27.4919326 -11.13032328 29.67750738 -11.13671875 31.86328125 C-11.13605793 33.25260462 -11.13477669 34.64192786 -11.1328125 36.03125 C-11.13168457 37.29517578 -11.13055664 38.55910156 -11.12939453 39.86132812 C-11.14385354 43.02990983 -11.14385354 43.02990983 -10 46 C-7.60280568 46.67958603 -7.60280568 46.67958603 -5 47 C-2.48295195 44.48295195 -2.75330401 42.92327101 -2.72210693 39.48840332 C-2.7261554 38.73941772 -2.73020386 37.99043213 -2.734375 37.21875 C-2.73246155 36.44946167 -2.7305481 35.68017334 -2.72857666 34.88757324 C-2.72721492 33.2601692 -2.73091061 31.6327543 -2.73925781 30.00537109 C-2.74995779 27.50984369 -2.73936249 25.01503618 -2.7265625 22.51953125 C-2.7278841 20.94010257 -2.7304465 19.36067434 -2.734375 17.78125 C-2.73032654 17.0322644 -2.72627808 16.28327881 -2.72210693 15.51159668 C-2.61812798 11.29688852 -2.61812798 11.29688852 -5 8 C-7.9254644 7.7763932 -7.9254644 7.7763932 -10 9 Z " fill="#2C376C" transform="translate(49,467)"/>
<path d="M0 0 C3.2792679 2.08680684 5.01792757 3.88654291 6.4375 7.5 C6.91353258 10.92743458 6.80764728 14.29116303 6.75 17.75 C3.78 17.75 0.81 17.75 -2.25 17.75 C-2.91 14.78 -3.57 11.81 -4.25 8.75 C-5.9 9.08 -7.55 9.41 -9.25 9.75 C-9.25 21.3 -9.25 32.85 -9.25 44.75 C-5.61380344 45.83084521 -5.61380344 45.83084521 -3.25 45.75 C-2.92 41.13 -2.59 36.51 -2.25 31.75 C-3.9 31.75 -5.55 31.75 -7.25 31.75 C-7.25 28.78 -7.25 25.81 -7.25 22.75 C-2.63 22.75 1.99 22.75 6.75 22.75 C6.80424884 26.10438673 6.84379427 29.45788454 6.875 32.8125 C6.90013672 34.22692383 6.90013672 34.22692383 6.92578125 35.66992188 C7.01378801 48.29889151 7.01378801 48.29889151 2.53125 53.15234375 C-2.46706174 56.02356496 -7.67111772 55.5592602 -13.25 54.75 C-17.58240473 52.0316284 -18.70144159 49.20960995 -19.85083008 44.32763672 C-20.72266936 38.69774123 -20.53445815 32.99522399 -20.5 27.3125 C-20.50773437 26.04083984 -20.51546875 24.76917969 -20.5234375 23.45898438 C-20.487327 6.04469436 -20.487327 6.04469436 -15.8125 1.25 C-10.53527696 -1.83910617 -5.72576951 -2.20221904 0 0 Z " fill="#2A3569" transform="translate(359.25,546.25)"/>
<path d="M0 0 C2.97 0 5.94 0 9 0 C9 7.26 9 14.52 9 22 C11.64 22 14.28 22 17 22 C17 14.74 17 7.48 17 0 C19.97 0 22.94 0 26 0 C26 18.15 26 36.3 26 55 C23.03 55 20.06 55 17 55 C17 47.08 17 39.16 17 31 C14.36 31 11.72 31 9 31 C9 38.92 9 46.84 9 55 C6.03 55 3.06 55 0 55 C0 36.85 0 18.7 0 0 Z " fill="#2B376D" transform="translate(160,467)"/>
<path d="M0 0 C3.37187982 2.35247429 4.17746862 4.05367394 5.6875 7.875 C6.11106168 10.84859067 6.13205826 13.78099846 6.12109375 16.78125 C6.1263356 17.62417603 6.13157745 18.46710205 6.13697815 19.33557129 C6.14337676 21.11058454 6.14208945 22.88564031 6.13354492 24.66064453 C6.12502524 27.36698217 6.15384017 30.07121373 6.18554688 32.77734375 C6.18715895 34.50781187 6.18658123 36.23828371 6.18359375 37.96875 C6.20044472 39.17368103 6.20044472 39.17368103 6.21763611 40.4029541 C6.15261739 45.67732285 5.19266203 48.7003929 1.6875 52.875 C-2.98229209 55.98819473 -7.84808808 55.60310766 -13.3125 54.875 C-16.54275335 53.247775 -18.67338661 51.15322678 -20.3125 47.875 C-20.4484514 44.88294411 -20.52529625 41.91538129 -20.55078125 38.921875 C-20.558853 38.02889709 -20.56692474 37.13591919 -20.57524109 36.21588135 C-20.5890857 34.32281437 -20.59980616 32.42972238 -20.60766602 30.53662109 C-20.6248498 27.6502299 -20.66872842 24.76499278 -20.71289062 21.87890625 C-20.7230202 20.03907092 -20.73153547 18.19922585 -20.73828125 16.359375 C-20.75578934 15.49979187 -20.77329742 14.64020874 -20.79133606 13.75457764 C-20.77176483 8.30953053 -19.96462378 5.1821357 -16.3125 0.875 C-11.21041009 -2.24294383 -5.46150985 -1.8548524 0 0 Z M-9.3125 7.875 C-11.82954805 10.39204805 -11.55919599 11.95172899 -11.59039307 15.38659668 C-11.5863446 16.13558228 -11.58229614 16.88456787 -11.578125 17.65625 C-11.58003845 18.42553833 -11.5819519 19.19482666 -11.58392334 19.98742676 C-11.58528508 21.6148308 -11.58158939 23.2422457 -11.57324219 24.86962891 C-11.56254221 27.36515631 -11.57313751 29.85996382 -11.5859375 32.35546875 C-11.5846159 33.93489743 -11.5820535 35.51432566 -11.578125 37.09375 C-11.58217346 37.8427356 -11.58622192 38.59172119 -11.59039307 39.36340332 C-11.69437202 43.57811148 -11.69437202 43.57811148 -9.3125 46.875 C-6.73709787 46.70992354 -6.73709787 46.70992354 -4.3125 45.875 C-2.82142737 42.89285474 -3.14971464 39.83670199 -3.14453125 36.56640625 C-3.14120285 35.84388168 -3.13787445 35.12135712 -3.13444519 34.37693787 C-3.12938012 32.8478967 -3.12703674 31.31884447 -3.12719727 29.78979492 C-3.12501184 27.4501728 -3.1068552 25.11102297 -3.08789062 22.77148438 C-3.08495641 21.28645995 -3.0829718 19.80143328 -3.08203125 18.31640625 C-3.07125298 17.26629112 -3.07125298 17.26629112 -3.06025696 16.19496155 C-3.07752738 12.52376732 -3.2175177 11.01747344 -5.3125 7.875 C-6.6325 7.875 -7.9525 7.875 -9.3125 7.875 Z " fill="#2B366C" transform="translate(145.3125,546.125)"/>
<path d="M0 0 C1.65322266 0.01740234 1.65322266 0.01740234 3.33984375 0.03515625 C4.44457031 0.04417969 5.54929687 0.05320312 6.6875 0.0625 C7.54214844 0.07410156 8.39679688 0.08570313 9.27734375 0.09765625 C11.77244757 12.60105362 13.9934003 25.13709361 16.02734375 37.72265625 C16.13984467 38.41408722 16.25234558 39.10551819 16.36825562 39.81790161 C16.68979725 41.79870747 17.00709137 43.78020138 17.32421875 45.76171875 C17.50823242 46.9110791 17.69224609 48.06043945 17.88183594 49.24462891 C18.27734375 52.09765625 18.27734375 52.09765625 18.27734375 55.09765625 C14.97734375 55.09765625 11.67734375 55.09765625 8.27734375 55.09765625 C7.94734375 51.46765625 7.61734375 47.83765625 7.27734375 44.09765625 C4.30734375 44.09765625 1.33734375 44.09765625 -1.72265625 44.09765625 C-2.05265625 47.72765625 -2.38265625 51.35765625 -2.72265625 55.09765625 C-5.69265625 55.09765625 -8.66265625 55.09765625 -11.72265625 55.09765625 C-10.48285449 43.69625202 -8.91848688 32.37940391 -7.06323242 21.06201172 C-6.65152074 18.54485987 -6.2483618 16.02642676 -5.84570312 13.5078125 C-5.58513565 11.90226249 -5.32408736 10.29679041 -5.0625 8.69140625 C-4.94269272 7.94056763 -4.82288544 7.189729 -4.69944763 6.4161377 C-3.65846809 0.13122195 -3.65846809 0.13122195 0 0 Z M2.27734375 14.09765625 C1.28734375 21.35765625 0.29734375 28.61765625 -0.72265625 36.09765625 C1.58734375 36.09765625 3.89734375 36.09765625 6.27734375 36.09765625 C5.28734375 28.83765625 4.29734375 21.57765625 3.27734375 14.09765625 C2.94734375 14.09765625 2.61734375 14.09765625 2.27734375 14.09765625 Z " fill="#2B366C" transform="translate(361.72265625,466.90234375)"/>
<path d="M0 0 C4.29 0 8.58 0 13 0 C14.14666412 6.70653654 15.28576307 13.41429842 16.41796875 20.12329102 C16.80392786 22.40391433 17.19192687 24.68419341 17.58203125 26.96411133 C18.14343453 30.24731802 18.69741276 33.53170573 19.25 36.81640625 C19.42499023 37.83021866 19.59998047 38.84403107 19.78027344 39.88856506 C20.63309137 45.00265745 21.2024587 49.81515925 21 55 C18.03 55 15.06 55 12 55 C11.0318352 51.1273408 10.92377142 47.96388638 11 44 C8.03 44 5.06 44 2 44 C1.93941406 44.71027344 1.87882813 45.42054688 1.81640625 46.15234375 C1.73261719 47.07144531 1.64882812 47.99054687 1.5625 48.9375 C1.44068359 50.31228516 1.44068359 50.31228516 1.31640625 51.71484375 C1 54 1 54 0 55 C-2.67058851 55.14115161 -5.32432238 55.04247107 -8 55 C-7.47039781 43.23674726 -5.42890798 31.77253798 -3.4375 20.1875 C-3.10428523 18.22339755 -2.77159888 16.25920538 -2.43945312 14.29492188 C-1.63238639 9.52889231 -0.81819267 4.76413162 0 0 Z M6 16 C4.35993952 22.66957927 3.48641215 29.15182898 3 36 C4.98 36 6.96 36 9 36 C8.30313614 25.96650723 8.30313614 25.96650723 7 16 C6.67 16 6.34 16 6 16 Z " fill="#2B366C" transform="translate(198,467)"/>
<path d="M0 0 C3.41135546 3.61202343 4.08751971 6.10685109 4.25 11.0625 C4.20875 12.114375 4.1675 13.16625 4.125 14.25 C1.155 14.25 -1.815 14.25 -4.875 14.25 C-5.535 11.94 -6.195 9.63 -6.875 7.25 C-8.195 7.25 -9.515 7.25 -10.875 7.25 C-12.14579419 10.13816861 -11.81129246 11.47509998 -10.9375 14.5625 C-9.09860513 18.54677221 -6.15601167 20.81573953 -2.8125 23.55078125 C1.12417659 27.00331011 3.85184776 31.19804898 4.328125 36.51953125 C4.44446101 42.83075965 3.91628567 47.25195243 -0.5625 52.0625 C-5.07030473 54.37731865 -9.28440782 54.58647142 -14.125 53.5625 C-17.08715538 52.14874402 -18.80283115 50.78265082 -20.875 48.25 C-22.24520997 44.13937009 -21.93776637 40.58087938 -21.875 36.25 C-18.905 36.25 -15.935 36.25 -12.875 36.25 C-12.545 38.56 -12.215 40.87 -11.875 43.25 C-9.79946352 43.8034764 -8.03134036 44.25 -5.875 44.25 C-6.13033294 38.39010903 -6.49106016 34.51545498 -10.875 30.25 C-11.865 29.445625 -12.855 28.64125 -13.875 27.8125 C-18.17257941 24.14165092 -21.50505962 19.98497501 -22.078125 14.19921875 C-22.18361154 9.1094934 -21.7868715 5.61780726 -18.875 1.25 C-13.37917212 -3.89125834 -6.29403839 -3.8311538 0 0 Z " fill="#2B366C" transform="translate(302.875,468.75)"/>
<path d="M0 0 C5.0631096 2.84421695 8.51340553 6.99932557 10.75 12.375 C11.69231824 19.43142963 11.03487967 25.57393214 6.75 31.375 C2.36758931 36.08158901 -2.17967493 38.41118566 -8.5625 38.75 C-14.17548039 38.60056957 -18.69866061 36.79682978 -22.7890625 32.9140625 C-27.75043768 27.19832618 -28.77009189 22.86299642 -28.625 15.41796875 C-27.95144165 9.95232337 -25.55920965 6.39619006 -21.46484375 2.8125 C-14.84893293 -2.13187497 -7.63648075 -3.49220467 0 0 Z M-17.25 12.375 C-19.27157538 15.03980391 -19.25 16.4045706 -19.25 19.8125 C-17.94720522 24.45370639 -16.33413426 25.87914018 -12.25 28.375 C-7.66430434 29.19387423 -5.86048728 28.74807556 -1.875 26.3125 C1.25242834 22.81275876 1.83326185 21.03766365 1.75 16.375 C0.17435501 12.72613792 -1.71749662 10.23937678 -5.25 8.375 C-10.725572 7.67810902 -13.39588344 8.41076582 -17.25 12.375 Z " fill="#2C386F" transform="translate(233.25,371.625)"/>
<path d="M0 0 C2.70552388 2.19823815 4.44778333 3.89556667 6 7 C6.07065617 9.04055005 6.08421976 11.08334257 6.0625 13.125 C6.05347656 14.22070312 6.04445313 15.31640625 6.03515625 16.4453125 C6.02355469 17.28835938 6.01195313 18.13140625 6 19 C3.03 19 0.06 19 -3 19 C-3 15.7 -3 12.4 -3 9 C-4.65 9 -6.3 9 -8 9 C-9.38421065 10.15668501 -9.38421065 10.15668501 -9.11352539 13.32641602 C-9.11336629 14.80225556 -9.10767314 16.27810069 -9.09765625 17.75390625 C-9.09553383 18.91707619 -9.09553383 18.91707619 -9.09336853 20.10374451 C-9.08775345 22.59003494 -9.07519846 25.0762366 -9.0625 27.5625 C-9.05748694 29.24413933 -9.0529237 30.92578006 -9.04882812 32.60742188 C-9.03777913 36.73831566 -9.02050445 40.86914276 -9 45 C-6.92446352 45.5534764 -5.15634036 46 -3 46 C-3 42.04 -3 38.08 -3 34 C-0.03 34 2.94 34 6 34 C6.68776572 47.9463605 6.68776572 47.9463605 4.375 51.75 C1.01063374 54.93729436 -1.56137743 55.96984036 -6.2109375 56.02734375 C-11.2560177 55.70050301 -14.41424756 54.80986197 -18 51 C-18.89479284 48.31562148 -19.13449948 46.73133334 -19.16113281 43.97509766 C-19.17074036 43.17061188 -19.1803479 42.3661261 -19.19024658 41.53726196 C-19.19449646 40.67160614 -19.19874634 39.80595032 -19.203125 38.9140625 C-19.20882507 38.02012787 -19.21452515 37.12619324 -19.22039795 36.20516968 C-19.22984256 34.31387514 -19.23637979 32.42256419 -19.24023438 30.53125 C-19.24993973 27.64293625 -19.28096786 24.75533426 -19.3125 21.8671875 C-19.31903036 20.02865005 -19.3242807 18.19010752 -19.328125 16.3515625 C-19.3404718 15.48995514 -19.3528186 14.62834778 -19.36553955 13.7406311 C-19.34805086 9.01580953 -19.13059943 5.79961675 -16 2 C-10.69248858 -1.18450685 -5.98262004 -1.87096919 0 0 Z " fill="#2B366C" transform="translate(19,467)"/>
<path d="M0 0 C2.70552388 2.19823815 4.44778333 3.89556667 6 7 C6.07065617 9.04055005 6.08421976 11.08334257 6.0625 13.125 C6.05347656 14.22070312 6.04445312 15.31640625 6.03515625 16.4453125 C6.02355469 17.28835938 6.01195312 18.13140625 6 19 C3.03 19 0.06 19 -3 19 C-3 15.7 -3 12.4 -3 9 C-4.65 9 -6.3 9 -8 9 C-9.38421065 10.15668501 -9.38421065 10.15668501 -9.11352539 13.32641602 C-9.11336629 14.80225556 -9.10767314 16.27810069 -9.09765625 17.75390625 C-9.09553383 18.91707619 -9.09553383 18.91707619 -9.09336853 20.10374451 C-9.08775345 22.59003494 -9.07519846 25.0762366 -9.0625 27.5625 C-9.05748694 29.24413933 -9.0529237 30.92578006 -9.04882812 32.60742188 C-9.03777913 36.73831566 -9.02050445 40.86914276 -9 45 C-6.92446352 45.5534764 -5.15634036 46 -3 46 C-3 42.04 -3 38.08 -3 34 C-0.03 34 2.94 34 6 34 C6.68776572 47.9463605 6.68776572 47.9463605 4.375 51.75 C1.0024974 54.94500247 -1.56433792 55.93114736 -6.2109375 56.0625 C-10.55533243 55.83156871 -12.54067645 55.37320039 -16 52.5625 C-19.45738721 48.13272263 -19.19191829 44.49273664 -19.23828125 39.046875 C-19.246353 38.15389709 -19.25442474 37.26091919 -19.26274109 36.34088135 C-19.2765857 34.44781437 -19.28730616 32.55472238 -19.29516602 30.66162109 C-19.3123498 27.7752299 -19.35622842 24.88999278 -19.40039062 22.00390625 C-19.4105202 20.16407092 -19.41903547 18.32422585 -19.42578125 16.484375 C-19.44328934 15.62479187 -19.46079742 14.76520874 -19.47883606 13.87957764 C-19.45929303 8.44237698 -18.6736274 5.28387425 -15 1 C-10.19687781 -1.56911187 -5.16161776 -1.50190719 0 0 Z " fill="#2B366C" transform="translate(149,467)"/>
<path d="M0 0 C4.79684278 2.04516553 7.88698771 5.29053095 10.5703125 9.71875 C12.61705654 14.88789919 12.47339209 19.98735184 11.640625 25.421875 C8.90552096 31.31286832 3.66948848 35.92451732 -2.359375 38.421875 C-9.00946537 39.40286659 -14.22105846 38.82300292 -19.70703125 34.8515625 C-23.77194867 31.33439991 -27.02885597 27.26348019 -27.66015625 21.8359375 C-27.70141155 12.01717526 -27.70141155 12.01717526 -24.359375 7.421875 C-16.83334449 0.01896973 -10.74698781 -2.63336787 0 0 Z M-16.359375 12.421875 C-17.93889698 16.04161286 -18.63443176 18.23913092 -17.734375 22.109375 C-15.4922083 25.88029172 -13.72714361 27.9758635 -9.484375 29.359375 C-5.55058696 29.43805076 -3.62183865 28.59685077 -0.359375 26.421875 C2.23910521 23.40428508 2.640625 21.92598884 2.640625 17.921875 C1.42731543 13.67529152 0.18343883 12.04047653 -3.359375 9.421875 C-9.04395405 7.66482329 -12.00204782 8.36854739 -16.359375 12.421875 Z " fill="#2B376D" transform="translate(384.359375,283.578125)"/>
<path d="M0 0 C5.41110281 3.8273654 8.56943078 7.41369881 10.5625 13.8125 C11.51774706 20.23679892 10.78458536 24.81135781 6.9921875 30.125 C3.51992545 34.22340766 -0.58840766 37.43727497 -5.98828125 38.1484375 C-12.44764061 38.23980043 -16.25085375 37.75435115 -21.4375 33.8125 C-26.237286 29.14070829 -28.70204582 24.27294425 -28.9375 17.5625 C-28.81072867 11.29999616 -26.66137228 7.34681278 -22.4375 2.8125 C-16.41404682 -2.85843556 -7.44871091 -2.57319104 0 0 Z M-17.4375 11.8125 C-19.54607453 14.47113745 -19.43773614 15.79951207 -19.375 19.25 C-18.24398509 23.54785664 -16.96526718 25.14707591 -13.4375 27.8125 C-9.72281588 29.07707332 -7.97834542 28.99278181 -4.25 27.75 C-0.83769535 25.39930124 0.25646141 23.73061578 1.5625 19.8125 C1.5625 15.82389939 0.84896364 14.19164306 -1.5625 11 C-7.48996667 6.48997101 -11.90886981 7.05530658 -17.4375 11.8125 Z " fill="#2B376D" transform="translate(81.4375,284.1875)"/>
<path d="M0 0 C4.77170419 2.88102894 8.79611892 6.96723785 11.3125 12 C11.99583376 19.28142527 12.13015779 26.14068648 7.3125 32 C2.91491771 36.25160446 -1.15565993 38.36771689 -7.3125 38.5625 C-13.89695464 38.14006637 -18.55337034 36.54358034 -23 31.5625 C-27.19926489 26.41983861 -28.19390013 22.43615696 -28.0703125 15.82421875 C-27.29654766 10.11572919 -24.24907544 6.44731382 -20.125 2.625 C-13.50259522 -1.78993652 -7.68043788 -2.08283061 0 0 Z M-15.6875 11 C-17.90245196 14.21525285 -18.6875 16.15544281 -18.6875 20.0625 C-17.38615985 23.88518669 -15.89843673 25.55689596 -12.6875 28 C-8.29226848 29.35852611 -6.49961049 29.41371666 -2.375 27.3125 C0.82705916 24.66081668 0.82705916 24.66081668 2.3125 21 C2.23430259 16.69914245 1.74599606 14.56973768 -0.875 11.125 C-6.20125476 7.10071862 -10.21185649 7.22789003 -15.6875 11 Z " fill="#2B376D" transform="translate(384.6875,108)"/>
<path d="M0 0 C4.10997383 2.97023319 7.25331448 6.52556843 8.859375 11.34375 C9.59833986 18.16403225 8.99903475 23.74021057 4.859375 29.34375 C0.04331858 34.26706825 -3.29556406 36.50851614 -10.265625 36.71875 C-16.55462803 36.64933496 -20.58129872 35.75253249 -25.140625 31.34375 C-28.98844985 27.17527308 -30.45381453 23.4556181 -30.640625 17.78125 C-30.25202067 10.73779645 -28.41648663 6.26465437 -23.203125 1.46875 C-16.51514695 -4.27852979 -7.56438689 -4.23605666 0 0 Z M-18.140625 9.34375 C-20.73910521 12.36133992 -21.140625 13.83963616 -21.140625 17.84375 C-19.92731543 22.09033348 -18.68343883 23.72514847 -15.140625 26.34375 C-10.77792411 27.69222118 -8.94987594 27.74074103 -4.828125 25.71875 C-2.00118053 23.22052 -0.92413605 22.0001349 -0.140625 18.34375 C-0.22353075 14.36427386 -0.86884414 12.69318253 -3.328125 9.53125 C-8.65708693 5.38650184 -12.58884047 5.64256032 -18.140625 9.34375 Z " fill="#2B376D" transform="translate(83.140625,109.65625)"/>
<path d="M0 0 C5.68316777 1.96327614 8.9799438 5.63165825 12.8125 10.125 C14.95682745 15.3165296 14.91283463 20.94174614 13.30859375 26.31640625 C10.7424919 31.97471451 7.09919697 35.1921351 1.75 38.3125 C-3.81456207 39.70364052 -9.61362619 40.10526196 -14.8125 37.375 C-19.56893896 33.83098666 -23.4867308 29.91550688 -25 24 C-25.63427809 18.00833732 -25.13064312 13.28296026 -22 8 C-14.84752639 0.6866323 -10.20911413 -0.73591255 0 0 Z M-14 13 C-15.7634617 15.91354542 -16.00837516 17.59799234 -15.9375 21 C-14.72717283 24.87304693 -13.19124462 26.51792085 -10 29 C-6.28531588 30.26457332 -4.54084542 30.18028181 -0.8125 28.9375 C2.59980465 26.58680124 3.69396141 24.91811578 5 21 C5 17.01139939 4.28646364 15.37914306 1.875 12.1875 C-4.01325932 7.70730269 -8.53930288 8.17426766 -14 13 Z " fill="#2B376D" transform="translate(230,19)"/>
<path d="M0 0 C9.24 0 18.48 0 28 0 C28 2.97 28 5.94 28 9 C25.03 9 22.06 9 19 9 C19 24.18 19 39.36 19 55 C15.7 55 12.4 55 9 55 C9 39.82 9 24.64 9 9 C6.03 9 3.06 9 0 9 C0 6.03 0 3.06 0 0 Z " fill="#2B366D" transform="translate(411,467)"/>
<path d="M0 0 C3.3 0 6.6 0 10 0 C10 15.18 10 30.36 10 46 C14.62 46 19.24 46 24 46 C24 48.97 24 51.94 24 55 C16.08 55 8.16 55 0 55 C0 36.85 0 18.7 0 0 Z " fill="#2B376D" transform="translate(60,467)"/>
<path d="M0 0 C8.91 0 17.82 0 27 0 C27 2.97 27 5.94 27 9 C24.03 9 21.06 9 18 9 C18 24.18 18 39.36 18 55 C15.03 55 12.06 55 9 55 C9 39.82 9 24.64 9 9 C6.03 9 3.06 9 0 9 C0 6.03 0 3.06 0 0 Z " fill="#2B366D" transform="translate(201,546)"/>
<path d="M0 0 C2.97 0 5.94 0 9 0 C9 18.15 9 36.3 9 55 C6.03 55 3.06 55 0 55 C0 36.85 0 18.7 0 0 Z " fill="#2C366D" transform="translate(293,546)"/>
<path d="M0 0 C2.97 0 5.94 0 9 0 C9 18.15 9 36.3 9 55 C6.03 55 3.06 55 0 55 C0 36.85 0 18.7 0 0 Z " fill="#2C366D" transform="translate(189,546)"/>
<path d="M0 0 C2.97 0 5.94 0 9 0 C9 18.15 9 36.3 9 55 C6.03 55 3.06 55 0 55 C0 36.85 0 18.7 0 0 Z " fill="#2C366D" transform="translate(223,467)"/>
<path d="M0 0 C4.55065282 1.8616307 6.84689454 4.61097733 9 9 C9.35053954 13.2565515 8.45972495 16.24473757 6.25 19.875 C2.99532502 22.9488597 0.46237431 23.81331392 -3.9375 24.375 C-7.89405216 23.89052423 -9.93505417 22.50768296 -13 20 C-15.55503235 15.83172198 -15.83282523 11.76606911 -15 7 C-11.42281567 0.59032399 -7.03943617 -0.73242688 0 0 Z " fill="#5BADF4" transform="translate(309,339)"/>
<path d="M0 0 C3.75212276 2.01502889 5.63644095 3.45466142 8 7 C8.45412106 12.5402769 8.28294372 16.29444733 5 21 C0.98387205 23.67741863 -2.20274224 24.69960009 -7 24 C-11.31646551 21.71481238 -14.0976625 19.54447291 -16 15 C-16.59676278 11.41942334 -16.73781641 9.13718493 -14.72265625 6.03125 C-10.32337655 0.78223168 -7.05728023 -0.97070397 0 0 Z " fill="#5BAEF4" transform="translate(63,201)"/>
<path d="M0 0 C3.12740787 2.0612461 4.33498308 3.35356975 5.75 6.8125 C6.15121989 10.55721902 6.08217435 13.01897239 4.625 16.5 C1.36786681 20.51713093 -1.61354878 22.54949891 -6.75 23.375 C-11.92030185 22.54405863 -14.50331022 20.19434971 -17.625 15.9375 C-18.86967475 11.70560585 -18.8113394 8.11244387 -17.0625 4.0625 C-12.34785657 -1.79016081 -6.95235198 -2.54028245 0 0 Z " fill="#5BAEF5" transform="translate(396.25,202.1875)"/>
<path d="M0 0 C3.07469523 1.70251719 5.40613254 3.81226508 7 7 C7.57717357 11.73093088 7.43416625 15.14717343 5.25 19.4375 C2.02903178 23.10582492 0.46320931 23.83742119 -4.375 24.375 C-8.69296607 23.92831385 -10.69326548 22.7684289 -14 20 C-16.54993405 15.82579288 -16.83355164 11.77022624 -16 7 C-12.25602577 0.29146625 -7.25522349 -1.11993383 0 0 Z " fill="#5BAEF5" transform="translate(148,339)"/>
<path d="M0 0 C3.64220644 1.39488757 4.70116195 2.53628578 6.8125 5.8125 C8.10627958 9.28527677 8.53441905 11.33541221 8 15 C5.52879647 19.84736078 3.12365027 22.1554859 -2 24 C-5.9165391 24.57116195 -7.63969818 24.18368328 -11.1875 22.375 C-14.37965004 19.67940663 -15.70238143 17.96918621 -17 14 C-17.38063202 9.46866637 -16.48339602 6.01835203 -13.5625 2.5 C-9.52333315 -1.08061409 -5.10903592 -0.84581029 0 0 Z M-6 9 C-6.33 10.32 -6.66 11.64 -7 13 C-5.68 13.33 -4.36 13.66 -3 14 C-2.67 12.68 -2.34 11.36 -2 10 C-3.32 9.67 -4.64 9.34 -6 9 Z " fill="#2C3970" transform="translate(229,97)"/>
<path d="M0 0 C4.09206332 1.808121 6.69807584 4.16345973 9 8 C9.62391938 12.91336509 9.53263057 14.9727839 7.25 19.375 C4.66111425 22.39536671 2.77129709 23.69404868 -1.1484375 24.37109375 C-5.34208921 24.49616757 -8.14781745 24.37572369 -11.5 21.6875 C-14.99441276 17.93100628 -15.29849719 15.06177432 -15.21484375 9.99609375 C-14.89350529 7.01056732 -13.90308743 5.29682965 -12 3 C-8.06538376 -0.16955197 -4.97922113 -0.53348798 0 0 Z M-5 10 C-5 11.32 -5 12.64 -5 14 C-3.68 14 -2.36 14 -1 14 C-1 12.68 -1 11.36 -1 10 C-2.32 10 -3.64 10 -5 10 Z " fill="#2C386F" transform="translate(319,255)"/>
<path d="M0 0 C3.4792124 1.27125068 5.46485319 2.37566205 7.875 5.1875 C9.36471426 8.91178565 9.59427565 12.04083927 9 16 C7.33528126 19.74561717 5.43774779 21.82011374 2 24 C-1.40255614 24.66391339 -4.58766641 24.59729664 -8 24 C-12.6076255 20.54428088 -14.65319983 17.2975511 -15.5 11.6875 C-14.83398123 6.77561156 -12.58855833 4.29106127 -9 1 C-5.92805092 -0.53597454 -3.39755707 -0.2265038 0 0 Z M-5 10 C-4.67 11.65 -4.34 13.3 -4 15 C-2.68 14.34 -1.36 13.68 0 13 C-0.33 12.01 -0.66 11.02 -1 10 C-2.32 10 -3.64 10 -5 10 Z " fill="#2C386F" transform="translate(136,255)"/>
<path d="M0 0 C3.12291165 1.68012647 5.39164837 3.78329674 7 7 C7.43032996 11.21226823 7.42629046 14.91059104 5.875 18.875 C3.41429239 21.66380195 1.53433061 22.7996613 -2 24 C-6.288792 24.2102349 -9.2359908 23.48165798 -12.875 21.1875 C-16.03918513 17.9302506 -16.87014401 16.16870392 -17.375 11.625 C-16.93060645 7.32919568 -15.70408706 5.32216411 -13 2 C-8.7581081 -0.82792793 -4.98126257 -0.78122286 0 0 Z M-6 9 C-6.33 10.32 -6.66 11.64 -7 13 C-5.68 13.33 -4.36 13.66 -3 14 C-3 12.68 -3 11.36 -3 10 C-3.99 9.67 -4.98 9.34 -6 9 Z " fill="#2B386F" transform="translate(138,150)"/>
<path d="M0 0 C3.18500291 1.62145603 5.22111096 2.97328264 7.375 5.8125 C8.72803718 10.54813013 8.59311706 13.89849689 6.25 18.25 C2.89645701 22.34877477 1.5426193 23.77240043 -3.8125 24.5625 C-8.2293549 24.42188851 -10.52373578 22.45825373 -13.65234375 19.5078125 C-16.46627007 16.35947755 -16.38559921 13.39287697 -16.359375 9.328125 C-15.75455722 5.40995764 -13.83123243 3.69641184 -11 1 C-7.52817697 -0.73591152 -3.79591036 -0.46571673 0 0 Z M-5 9 C-5.66 10.32 -6.32 11.64 -7 13 C-4.525 13.495 -4.525 13.495 -2 14 C-2.33 12.35 -2.66 10.7 -3 9 C-3.66 9 -4.32 9 -5 9 Z " fill="#2C386E" transform="translate(320,150)"/>
<path d="M0 0 C3.63467079 1.62400184 4.77408696 2.66113044 7 6 C7.5965522 10.57098437 7.52885741 14.73074222 5.75 19 C3.43453089 21.64625042 1.32184735 22.77168091 -2.1484375 23.37109375 C-6.38139331 23.4973398 -9.14342222 23.37350209 -12.5 20.625 C-16.13542732 16.80780131 -16.39236502 14.44157848 -16.359375 9.328125 C-15.75455722 5.40995764 -13.83123243 3.69641184 -11 1 C-7.55359623 -0.72320188 -3.7757718 -0.3723512 0 0 Z " fill="#5CAFF6" transform="translate(310,63)"/>
<path d="M0 0 C3.81967567 1.84982445 6.33517567 4.16272686 7.79296875 8.19140625 C8.49543408 12.30187172 8.21051454 14.54528859 6.4375 18.375 C2.98245115 22.09582184 0.02378891 23.70486412 -5 24.4375 C-8.85762893 23.87492911 -10.97048355 22.40984263 -14 20 C-16.82792793 15.7581081 -16.78122286 11.98126257 -16 7 C-12.38053755 0.27237462 -7.18069537 -1.19483022 0 0 Z M-6 9 C-6.33 10.32 -6.66 11.64 -7 13 C-5.68 13.33 -4.36 13.66 -3 14 C-2.67 12.68 -2.34 11.36 -2 10 C-3.32 9.67 -4.64 9.34 -6 9 Z " fill="#2C386F" transform="translate(229,308)"/>
<path d="M0 0 C3.07469523 1.70251719 5.40613254 3.81226508 7 7 C7.53118173 10.79415519 7.85089348 14.46331178 5.953125 17.890625 C3.53559013 20.82010844 1.61354552 22.74461869 -2.171875 23.34375 C-8.80748246 23.74590803 -8.80748246 23.74590803 -11.9921875 21.75390625 C-15.022219 18.61514156 -16.39886211 15.80407323 -16.6875 11.4375 C-16.36230674 6.55960116 -14.48076049 4.31500999 -11 1 C-7.51556578 -0.74221711 -3.80112955 -0.58675154 0 0 Z " fill="#5CB0F6" transform="translate(148,63)"/>
<path d="M0 0 C3.03798467 2.59340154 3.86323667 4.06219433 4.4375 8 C3.93911153 11.41752096 3.11569184 13.27982477 1 16 C-2.20937409 18.32402951 -5.11506021 18.47570691 -9 18 C-11.69990662 16.20006226 -13.5418865 14.916227 -15 12 C-15.39447548 7.81855989 -15.45035186 5.69053952 -13.125 2.125 C-9.09689299 -1.90310701 -5.29670138 -1.36415933 0 0 Z " fill="#5BADF3" transform="translate(178,116)"/>
<path d="M0 0 C3 2 3 2 5 5 C5.37990283 8.22917403 5.02828703 10.92088353 4 14 C1.85405442 16.66617481 0.39868082 17.68070519 -2.93359375 18.44140625 C-5.16028813 18.6392411 -6.83677039 18.57133685 -9 18 C-12.56352884 14.95615245 -13.81458415 13.05687034 -14.625 8.4375 C-13.84380508 4.14092793 -12.34762132 2.70997917 -9 0 C-5.77509551 -1.61245225 -3.43772273 -0.81573082 0 0 Z " fill="#5BACF3" transform="translate(337,204)"/>
<path d="M0 0 C3.4375 2 3.4375 2 6 5 C6.74640732 7.82609184 6.68717509 10.16540277 6 13 C4.20636089 15.8100346 2.98119065 17.50940468 0 19 C-4.1191283 19.56169931 -5.73293198 19.16628763 -9.3125 16.9375 C-12.51029941 13.44223087 -13.08397702 11.70271287 -13 7 C-10.23185159 0.77166607 -6.67344719 -0.79176492 0 0 Z " fill="#5BADF3" transform="translate(280,115)"/>
<path d="M0 0 C3.61932815 2.61823738 4.82190418 4.02047301 5.625 8.4375 C4.81458415 13.05687034 3.56352884 14.95615245 0 18 C-2.85439331 18.80567553 -5.13906115 18.76291703 -8 18 C-11.59385281 15.47665654 -12.76154966 13.72859825 -14.125 9.5625 C-13.95278418 4.65434903 -12.46551473 3.38492136 -9 0 C-5.77509551 -1.61245225 -3.43772273 -0.81573082 0 0 Z " fill="#5BADF3" transform="translate(121,204)"/>
<path d="M0 0 C2.46111244 0.62751691 3.50724798 1.32353129 5.22265625 3.17578125 C7.33042857 6.84738464 7.95164849 8.41743289 7.16015625 12.55078125 C5.36021851 15.25068787 4.07638325 17.09266775 1.16015625 18.55078125 C-6.08071966 19.13472286 -6.08071966 19.13472286 -9.27734375 16.67578125 C-12.08623225 12.85569289 -12.32374479 10.30914146 -11.83984375 5.55078125 C-8.66211723 0.73293781 -5.53733608 -0.32355052 0 0 Z " fill="#5BADF4" transform="translate(174.83984375,291.44921875)"/>
<path d="M0 0 C3.05067422 1.99227704 4.59426669 3.33682874 5.47265625 6.9375 C5.76241935 10.86044665 5.21886932 12.67169602 3 16 C-0.32830398 18.21886932 -2.13955335 18.76241935 -6.0625 18.47265625 C-9.66317126 17.59426669 -11.00772296 16.05067422 -13 13 C-13.86522074 8.69686677 -13.72193187 5.28692202 -11.5625 1.4375 C-7.71307798 -0.72193187 -4.30313323 -0.86522074 0 0 Z " fill="#5BAEF5" transform="translate(281,292)"/>
<path d="M0 0 C3.43250143 1.9401095 4.70166193 3.14227804 6 6.875 C6 10.74826713 5.12269877 12.7793536 3 16 C0.35555365 18.17222379 -1.02987018 17.99893321 -4.5 17.875 C-8.405988 16.898503 -9.83194553 16.38216497 -12 13 C-12.7099846 8.0301078 -12.79117716 6.15080314 -9.9375 2 C-6.23727467 -0.51930235 -4.3968344 -0.7066341 0 0 Z " fill="#2B366B" transform="translate(44,163)"/>
<path d="M0 0 C3.34238038 2.14255152 3.89167954 3.60282498 4.9375 7.4375 C5.0088886 11.50664993 4.73897267 13.00424864 2 16 C-2.10460518 17.85868914 -4.03380718 18.34637101 -8.3125 16.8125 C-11 15 -11 15 -13 12 C-13.56045628 7.67648012 -13.4786058 5.70295227 -11 2.0625 C-6.84919686 -0.79117716 -4.9698922 -0.7099846 0 0 Z " fill="#2B366C" transform="translate(279,360)"/>
<path d="M0 0 C2.84135774 2.56638763 3.72292357 5.2132888 4 9 C3.23355683 11.92641938 2.37191157 13.60053942 0.3125 15.8125 C-3.04305003 17.53562029 -5.28017365 17.52208089 -9 17 C-11.93052231 15.00475077 -13.64521503 13.57163515 -14.4453125 10.02734375 C-14.64529931 6.46091226 -14.30896766 4.40165795 -12.125 1.5625 C-8.06997703 -1.41913454 -4.78809262 -1.26570481 0 0 Z " fill="#2B366C" transform="translate(394,240)"/>
<path d="M0 0 C2.69990662 1.79993774 4.5418865 3.083773 6 6 C6.43023798 9.87214182 6.31669086 11.52496371 4.125 14.8125 C1.61855093 17.39266816 0.74538327 17.91717964 -2.8125 18.3125 C-6.7307645 17.92835642 -8.21293267 16.70743683 -11 14 C-12.42662219 11.14675563 -12.31033868 9.16545451 -12 6 C-8.54235344 0.81353016 -6.24330406 -0.61208863 0 0 Z " fill="#2B376D" transform="translate(286,201)"/>
<path d="M0 0 C2.69990662 1.79993774 4.5418865 3.083773 6 6 C6.43023798 9.87214182 6.31669086 11.52496371 4.125 14.8125 C1.61855093 17.39266816 0.74538327 17.91717964 -2.8125 18.3125 C-6.7307645 17.92835642 -8.21293267 16.70743683 -11 14 C-12.42662219 11.14675563 -12.31033868 9.16545451 -12 6 C-8.54235344 0.81353016 -6.24330406 -0.61208863 0 0 Z " fill="#2B366C" transform="translate(166,201)"/>
<path d="M0 0 C2.96593118 2.25668676 4.58516544 3.98884076 6 7.4375 C6 10.99533772 4.9131909 13.03125551 3 16 C0.35555365 18.17222379 -1.02987018 17.99893321 -4.5 17.875 C-8.405988 16.898503 -9.83194553 16.38216497 -12 13 C-12.7099846 8.0301078 -12.79117716 6.15080314 -9.9375 2 C-6.22192774 -0.52975133 -4.4117517 -0.7878128 0 0 Z " fill="#2C366B" transform="translate(342,77)"/>
<path d="M0 0 C2.69990662 1.79993774 4.5418865 3.083773 6 6 C6.40391526 9.63523738 6.23463713 11.56005537 4.5 14.8125 C1.58285166 17.36500479 -0.23064927 17.94149193 -4.03125 18.2109375 C-7.22582498 17.86866161 -8.85616798 16.27376123 -11 14 C-12.3899408 11.2201184 -12.18488204 9.0813674 -12 6 C-11.13676251 3.41028753 -10.46898968 2.33499263 -8.25 0.75 C-5.26448836 -0.24517055 -3.13343215 -0.38368557 0 0 Z " fill="#2B366C" transform="translate(278,46)"/>
<path d="M0 0 C3.06084489 2.39128507 3.00638961 4.05031819 3.5 7.9375 C3.34732012 11.19874218 2.90510887 12.1499892 1.0625 15.0625 C-2.69211227 17.43786695 -4.6945427 17.41582829 -8.97265625 16.6328125 C-11 16 -11 16 -13.0625 14.4375 C-14.42019101 10.90750338 -14.57471373 7.73180785 -14 4 C-10.84637388 -1.85673422 -5.80727001 -1.52440838 0 0 Z " fill="#2B366C" transform="translate(261,150)"/>
<path d="M0 0 C2.73897267 2.99575136 3.0088886 4.49335007 2.9375 8.5625 C1.89167954 12.39717502 1.34238038 13.85744848 -2 16 C-6.9698922 16.7099846 -8.84919686 16.79117716 -13 13.9375 C-15.51930235 10.23727467 -15.7066341 8.3968344 -15 4 C-13.3236826 1.24604998 -12.06172747 -0.45083062 -9.1875 -1.9375 C-5.74693615 -2.03580182 -3.18626464 -1.27450586 0 0 Z " fill="#2B366C" transform="translate(119,81)"/>
<path d="M0 0 C2.4375 1.5625 2.4375 1.5625 4 4 C4.7099846 8.9698922 4.79117716 10.84919686 1.9375 15 C-1.77807226 17.52975133 -3.5882483 17.7878128 -8 17 C-10.93052231 15.00475077 -12.64521503 13.57163515 -13.4453125 10.02734375 C-13.64529931 6.46091226 -13.30896766 4.40165795 -11.125 1.5625 C-7.08746789 -1.40627361 -4.90824906 -1.10012479 0 0 Z " fill="#2C366C" transform="translate(173,377)"/>
<path d="M0 0 C3.06084489 2.39128507 3.00638961 4.05031819 3.5 7.9375 C3.34732012 11.19874218 2.90510887 12.1499892 1.0625 15.0625 C-2.69211227 17.43786695 -4.6945427 17.41582829 -8.97265625 16.6328125 C-11 16 -11 16 -13.0625 14.4375 C-14.42010673 10.90772251 -14.71158939 7.72627993 -14 4 C-9.99087339 -1.2118646 -6.20959697 -1.60001885 0 0 Z " fill="#2C366C" transform="translate(104,338)"/>
<path d="M0 0 C2.73897267 2.99575136 3.0088886 4.49335007 2.9375 8.5625 C1.89167954 12.39717502 1.34238038 13.85744848 -2 16 C-6.9698922 16.7099846 -8.84919686 16.79117716 -13 13.9375 C-15.51930235 10.23727467 -15.7066341 8.3968344 -15 4 C-13.3236826 1.24604998 -12.06172747 -0.45083062 -9.1875 -1.9375 C-5.74693615 -2.03580182 -3.18626464 -1.27450586 0 0 Z " fill="#2B366C" transform="translate(264,258)"/>
<path d="M0 0 C2.93052231 1.99524923 4.64521503 3.42836485 5.4453125 6.97265625 C5.63409202 10.33922437 5.25759307 12.59815481 3.4375 15.4375 C0.19100111 17.51858903 -2.15247539 17.93249957 -6 18 C-8.94755732 16.65437601 -10.54277272 15.91445456 -12 13 C-12.68839635 6.00130378 -12.68839635 6.00130378 -9.9375 2 C-6.22192774 -0.52975133 -4.4117517 -0.7878128 0 0 Z " fill="#2C376D" transform="translate(198,151)"/>
<path d="M0 0 C3.43250143 1.9401095 4.70166193 3.14227804 6 6.875 C6 10.74826713 5.12269877 12.7793536 3 16 C0.35555365 18.17222379 -1.02987018 17.99893321 -4.5 17.875 C-8.405988 16.898503 -9.83194553 16.38216497 -12 13 C-12.7099846 8.0301078 -12.79117716 6.15080314 -9.9375 2 C-6.23727467 -0.51930235 -4.3968344 -0.7066341 0 0 Z " fill="#2C366C" transform="translate(180,48)"/>
<path d="M0 0 C3.06708139 1.80024342 4.58578006 3.0421164 6 6.3125 C6 10.18017931 4.89432535 12.65335854 3 16 C0.07174483 17.89940876 -1.58447455 18.01696022 -5.0625 17.875 C-8.59115184 16.82391222 -9.95131497 16.07302755 -12 13 C-12.7099846 8.0301078 -12.79117716 6.15080314 -9.9375 2 C-6.23727467 -0.51930235 -4.3968344 -0.7066341 0 0 Z " fill="#2C376C" transform="translate(342,328)"/>
<path d="M0 0 C3.03437855 2.02291903 3.81161043 3.42227198 4.9375 6.875 C5.0174078 10.87038992 4.35235238 12.76551547 2 16 C-1.6316146 17.61405093 -3.85206219 18.26089496 -7.75 17.375 C-10.37259386 15.77230375 -11.59045163 14.74490999 -13 12 C-13.6338947 7.64197392 -13.49760663 5.73085974 -11 2.0625 C-6.84919686 -0.79117716 -4.9698922 -0.7099846 0 0 Z " fill="#2B366C" transform="translate(45,239)"/>
<path d="M0 0 C3.03437855 2.02291903 3.81161043 3.42227198 4.9375 6.875 C5.0174078 10.87038992 4.35235238 12.76551547 2 16 C-1.6316146 17.61405093 -3.85206219 18.26089496 -7.75 17.375 C-10.37259386 15.77230375 -11.59045163 14.74490999 -13 12 C-13.6338947 7.64197392 -13.49760663 5.73085974 -11 2.0625 C-6.84919686 -0.79117716 -4.9698922 -0.7099846 0 0 Z " fill="#2B366B" transform="translate(393,168)"/>
<path d="M0 0 C2.16090898 2.72462436 1.88386401 5.17012904 1.7578125 8.53515625 C1.34765625 10.69921875 1.34765625 10.69921875 -0.71484375 13.26171875 C-4.39778212 15.06400774 -6.5953 15.27879643 -10.65234375 14.69921875 C-13.58984375 13.26171875 -13.58984375 13.26171875 -15.65234375 10.69921875 C-16.3052323 7.57795333 -16.27836794 4.82359635 -15.65234375 1.69921875 C-13.8642177 -0.85524704 -12.56449813 -1.8751092 -9.77734375 -3.17578125 C-6.07885218 -3.39333958 -2.90393709 -2.28607814 0 0 Z " fill="#2B366C" transform="translate(201.65234375,259.30078125)"/>
</svg>
