<svg xmlns="http://www.w3.org/2000/svg" xmlns:xlink="http://www.w3.org/1999/xlink" width="500" zoomAndPan="magnify" viewBox="0 0 375 374.999991" height="500" preserveAspectRatio="xMidYMid meet" version="1.0"><defs><clipPath id="efef26a32a"><path d="M 183 79.6875 L 314.234375 79.6875 L 314.234375 229.6875 L 183 229.6875 Z M 183 79.6875 " clip-rule="nonzero"/></clipPath><clipPath id="7dc002fd6e"><path d="M 60.667969 178.511719 L 268.277344 178.511719 L 268.277344 295.511719 L 60.667969 295.511719 Z M 60.667969 178.511719 " clip-rule="nonzero"/></clipPath><clipPath id="8d7bee763a"><path d="M 66 178.511719 L 268.277344 178.511719 L 268.277344 290 L 66 290 Z M 66 178.511719 " clip-rule="nonzero"/></clipPath><clipPath id="84fd21010e"><path d="M 75 204 L 268.277344 204 L 268.277344 285 L 75 285 Z M 75 204 " clip-rule="nonzero"/></clipPath><clipPath id="d9190ac5c6"><path d="M 60.667969 178.511719 L 268.277344 178.511719 L 268.277344 285 L 60.667969 285 Z M 60.667969 178.511719 " clip-rule="nonzero"/></clipPath><clipPath id="43ab959264"><path d="M 63 180 L 268.277344 180 L 268.277344 295.511719 L 63 295.511719 Z M 63 180 " clip-rule="nonzero"/></clipPath></defs><rect x="-37.5" width="450" fill="#ffffff" y="-37.499999" height="449.999989" fill-opacity="1"/><rect x="-37.5" width="450" fill="#ffffff" y="-37.499999" height="449.999989" fill-opacity="1"/><g clip-path="url(#efef26a32a)"><path fill="#86e6ff" d="M 195.191406 189.859375 C 193.730469 190.726562 192.308594 191.59375 190.855469 192.394531 C 189.863281 192.941406 188.863281 193.511719 187.796875 193.867188 C 186.816406 194.191406 185.839844 193.832031 185.019531 193.203125 C 184.058594 192.46875 183.5 191.449219 183.390625 190.269531 C 183.3125 189.457031 183.582031 188.660156 184.0625 187.945312 C 184.652344 187.066406 185.59375 186.675781 186.441406 186.164062 C 188.144531 185.140625 189.882812 184.179688 191.613281 183.199219 C 192.828125 182.511719 194.050781 181.832031 195.269531 181.148438 C 196.175781 180.640625 197.074219 180.128906 197.976562 179.621094 C 198.230469 179.476562 198.480469 179.335938 198.730469 179.191406 C 198.449219 179.066406 198.179688 178.90625 197.886719 178.816406 C 195.992188 178.242188 194.085938 177.695312 192.195312 177.105469 C 191.265625 176.816406 190.3125 176.5625 189.628906 175.773438 C 188.707031 174.714844 188.410156 173.476562 188.863281 172.183594 C 189.304688 170.921875 190.269531 170.164062 191.636719 169.886719 C 192.820312 169.648438 193.828125 170.15625 194.878906 170.46875 C 197.78125 171.335938 200.671875 172.246094 203.570312 173.136719 C 204.703125 173.488281 205.832031 173.867188 206.976562 174.179688 C 207.21875 174.246094 207.5625 174.152344 207.796875 174.023438 C 209.652344 172.980469 211.488281 171.90625 213.332031 170.847656 C 214.53125 170.160156 215.734375 169.484375 216.9375 168.804688 C 217.042969 168.75 217.175781 168.746094 217.277344 168.6875 C 217.414062 168.613281 217.535156 168.507812 217.660156 168.417969 C 217.519531 168.324219 217.390625 168.183594 217.234375 168.144531 C 216.273438 167.894531 215.304688 167.691406 214.351562 167.433594 C 211.550781 166.675781 208.746094 165.921875 205.960938 165.109375 C 204.726562 164.753906 203.644531 164.171875 203.0625 162.867188 C 202.507812 161.632812 202.828125 160.109375 203.613281 159.179688 C 204.289062 158.382812 205.171875 158.019531 206.148438 157.910156 C 206.621094 157.855469 207.132812 157.992188 207.609375 158.117188 C 209.496094 158.621094 211.375 159.144531 213.253906 159.675781 C 215.328125 160.261719 217.398438 160.871094 219.476562 161.453125 C 221.269531 161.960938 223.074219 162.441406 224.875 162.9375 C 225.238281 163.035156 225.601562 163.164062 225.972656 163.238281 C 226.640625 163.371094 227.085938 162.871094 227.59375 162.59375 C 228.851562 161.90625 230.085938 161.164062 231.324219 160.441406 C 232.863281 159.539062 234.390625 158.625 235.933594 157.730469 C 237.578125 156.777344 239.234375 155.839844 240.882812 154.890625 C 240.988281 154.828125 241.066406 154.710938 241.15625 154.621094 C 241.070312 154.566406 240.980469 154.507812 240.890625 154.453125 C 239.148438 153.421875 237.414062 152.375 235.664062 151.351562 C 233.546875 150.113281 231.417969 148.886719 229.292969 147.65625 C 228.511719 147.207031 227.710938 146.792969 226.964844 146.296875 C 226.46875 145.964844 226.011719 145.980469 225.480469 146.132812 C 223.519531 146.6875 221.554688 147.21875 219.589844 147.765625 C 217.859375 148.242188 216.128906 148.726562 214.398438 149.207031 C 212.535156 149.726562 210.675781 150.261719 208.808594 150.757812 C 207.929688 150.988281 207.039062 151.242188 206.144531 151.292969 C 204.808594 151.371094 203.148438 150.054688 202.875 148.78125 C 202.445312 146.761719 203.320312 144.972656 205.457031 144.320312 C 207.46875 143.699219 209.519531 143.199219 211.550781 142.636719 C 213.332031 142.144531 215.109375 141.644531 216.890625 141.148438 C 216.972656 141.125 217.058594 141.105469 217.140625 141.082031 C 217.308594 141.039062 217.476562 140.996094 217.640625 140.949219 C 217.511719 140.832031 217.390625 140.6875 217.242188 140.601562 C 215.226562 139.425781 213.207031 138.253906 211.183594 137.089844 C 210.089844 136.464844 208.976562 135.871094 207.890625 135.230469 C 207.222656 134.839844 206.605469 135.160156 206.011719 135.339844 C 203.394531 136.136719 200.792969 136.984375 198.179688 137.800781 C 196.585938 138.300781 194.996094 138.8125 193.382812 139.246094 C 191.585938 139.726562 190.117188 139.171875 189.109375 137.570312 C 188.460938 136.539062 188.601562 134.867188 189.351562 133.804688 C 190.117188 132.71875 191.289062 132.429688 192.414062 132.0625 C 194.296875 131.449219 196.203125 130.898438 198.097656 130.324219 C 198.164062 130.304688 198.230469 130.292969 198.296875 130.273438 C 198.453125 130.230469 198.605469 130.1875 198.757812 130.144531 C 198.613281 130.023438 198.480469 129.878906 198.320312 129.789062 C 197.238281 129.179688 196.148438 128.582031 195.066406 127.972656 C 193.804688 127.257812 192.542969 126.539062 191.285156 125.816406 C 189.15625 124.59375 186.976562 123.449219 184.921875 122.113281 C 183.617188 121.265625 183.039062 119.519531 183.722656 117.832031 C 184.328125 116.335938 185.40625 115.460938 186.964844 115.273438 C 187.535156 115.203125 188.21875 115.378906 188.734375 115.65625 C 190.441406 116.566406 192.097656 117.578125 193.773438 118.546875 C 195.433594 119.507812 197.105469 120.457031 198.757812 121.425781 C 199.894531 122.09375 201.015625 122.792969 202.144531 123.46875 C 202.246094 123.53125 202.367188 123.554688 202.480469 123.597656 C 202.46875 123.472656 202.476562 123.34375 202.449219 123.226562 C 202 121.203125 201.539062 119.183594 201.109375 117.160156 C 200.953125 116.433594 200.839844 115.695312 200.777344 114.960938 C 200.628906 113.203125 202.46875 111.542969 204.148438 111.535156 C 206.179688 111.527344 207.546875 113.066406 207.898438 114.890625 C 208.136719 116.117188 208.425781 117.339844 208.699219 118.5625 C 209.054688 120.140625 209.421875 121.714844 209.78125 123.292969 C 210.15625 124.9375 210.484375 126.59375 210.929688 128.21875 C 211.027344 128.585938 211.46875 128.929688 211.835938 129.144531 C 213.769531 130.292969 215.730469 131.386719 217.671875 132.515625 C 218.765625 133.152344 219.839844 133.824219 220.925781 134.472656 C 221.023438 134.53125 221.15625 134.523438 221.269531 134.542969 C 221.261719 134.441406 221.265625 134.332031 221.238281 134.234375 C 220.722656 132.242188 220.203125 130.25 219.6875 128.253906 C 219.179688 126.292969 218.667969 124.332031 218.175781 122.367188 C 217.664062 120.328125 218.75 118.246094 220.90625 117.847656 C 222.9375 117.472656 224.554688 118.5625 225.140625 120.683594 C 225.710938 122.769531 226.234375 124.871094 226.769531 126.964844 C 227.273438 128.929688 227.753906 130.898438 228.257812 132.863281 C 228.804688 134.972656 229.328125 137.089844 229.957031 139.175781 C 230.082031 139.585938 230.601562 139.945312 231.019531 140.1875 C 233.695312 141.734375 236.394531 143.242188 239.082031 144.769531 C 240.914062 145.808594 242.738281 146.867188 244.574219 147.902344 C 245.03125 148.15625 244.945312 147.765625 244.945312 147.535156 C 244.949219 146.179688 244.941406 144.828125 244.949219 143.472656 C 244.984375 139.441406 245.023438 135.414062 245.074219 131.382812 C 245.078125 131.042969 244.980469 130.808594 244.738281 130.570312 C 243.113281 128.96875 241.511719 127.339844 239.890625 125.734375 C 238.078125 123.941406 236.253906 122.160156 234.429688 120.378906 C 233.328125 119.296875 232.195312 118.246094 231.109375 117.148438 C 230.367188 116.402344 229.925781 115.5 229.933594 114.410156 C 229.941406 112.828125 231.101562 111.386719 232.710938 111.023438 C 234.125 110.703125 235.214844 111.269531 236.21875 112.148438 C 236.445312 112.339844 236.640625 112.566406 236.851562 112.773438 C 239.40625 115.296875 241.960938 117.816406 244.515625 120.335938 C 244.609375 120.425781 244.699219 120.519531 244.792969 120.613281 C 244.882812 120.707031 244.976562 120.800781 245.066406 120.898438 C 245.105469 120.746094 245.179688 120.597656 245.179688 120.445312 C 245.1875 118.886719 245.199219 117.328125 245.183594 115.769531 C 245.160156 113.609375 245.121094 111.445312 245.070312 109.285156 C 245.066406 109.109375 244.980469 108.886719 244.851562 108.769531 C 243.441406 107.445312 242.015625 106.136719 240.59375 104.824219 C 240.042969 104.316406 239.492188 103.804688 238.949219 103.289062 C 237.390625 101.804688 235.832031 100.324219 234.28125 98.835938 C 233.285156 97.882812 232.925781 96.679688 233.316406 95.398438 C 233.714844 94.089844 234.613281 93.1875 236.042969 92.875 C 237.234375 92.617188 238.222656 93.007812 239.125 93.683594 C 239.691406 94.113281 240.183594 94.640625 240.699219 95.132812 C 242.0625 96.417969 243.417969 97.703125 244.78125 98.988281 C 244.84375 99.046875 244.925781 99.082031 245 99.128906 C 245.027344 99.035156 245.082031 98.9375 245.078125 98.847656 C 245.050781 97.746094 244.980469 96.648438 244.980469 95.550781 C 244.96875 91.488281 244.964844 87.425781 244.988281 83.363281 C 245 81.691406 246.339844 80.25 247.980469 79.96875 C 249.429688 79.722656 250.636719 80.089844 251.640625 81.140625 C 252.234375 81.757812 252.542969 82.523438 252.546875 83.378906 C 252.554688 87.421875 252.554688 91.464844 252.539062 95.511719 C 252.535156 96.535156 252.460938 97.558594 252.441406 98.582031 C 252.4375 98.761719 252.539062 98.945312 252.59375 99.128906 C 252.710938 99.015625 252.824219 98.898438 252.941406 98.789062 C 253.945312 97.859375 254.957031 96.933594 255.957031 95.996094 C 256.722656 95.28125 257.460938 94.535156 258.242188 93.839844 C 259.417969 92.78125 260.914062 92.464844 262.320312 93.171875 C 263.875 93.957031 264.804688 95.714844 264.082031 97.546875 C 263.90625 97.992188 263.628906 98.429688 263.296875 98.773438 C 262.332031 99.761719 261.324219 100.703125 260.320312 101.652344 C 259.203125 102.710938 258.074219 103.757812 256.945312 104.800781 C 255.539062 106.101562 254.117188 107.390625 252.726562 108.707031 C 252.554688 108.867188 252.445312 109.171875 252.4375 109.410156 C 252.410156 110.839844 252.4375 112.269531 252.417969 113.695312 C 252.398438 115.226562 252.34375 116.757812 252.3125 118.289062 C 252.296875 119.039062 252.300781 119.785156 252.316406 120.535156 C 252.316406 120.664062 252.402344 120.792969 252.445312 120.921875 C 252.550781 120.835938 252.664062 120.757812 252.75 120.660156 C 252.871094 120.527344 252.953125 120.367188 253.078125 120.242188 C 255.761719 117.59375 258.441406 114.941406 261.140625 112.304688 C 261.980469 111.484375 262.949219 110.855469 264.191406 110.949219 C 265.734375 111.0625 267.136719 112.078125 267.46875 113.769531 C 267.75 115.195312 267.269531 116.300781 266.296875 117.261719 C 265.515625 118.039062 264.703125 118.785156 263.90625 119.550781 C 263.640625 119.804688 263.386719 120.070312 263.125 120.328125 C 259.660156 123.75 256.199219 127.175781 252.730469 130.589844 C 252.503906 130.8125 252.402344 131.027344 252.40625 131.351562 C 252.421875 133.5625 252.398438 135.769531 252.414062 137.976562 C 252.4375 141.171875 252.480469 144.367188 252.523438 147.558594 C 252.523438 147.730469 252.597656 147.898438 252.636719 148.066406 C 252.753906 147.980469 252.867188 147.882812 252.992188 147.8125 C 253.769531 147.363281 254.550781 146.914062 255.332031 146.472656 C 257.121094 145.460938 258.914062 144.457031 260.699219 143.441406 C 262.355469 142.503906 264.003906 141.558594 265.652344 140.613281 C 265.921875 140.457031 266.171875 140.238281 266.460938 140.152344 C 267.457031 139.863281 267.671875 139.039062 267.886719 138.199219 C 268.503906 135.785156 269.132812 133.371094 269.746094 130.957031 C 270.359375 128.539062 270.945312 126.109375 271.574219 123.695312 C 271.910156 122.394531 272.152344 121.03125 272.714844 119.828125 C 273.835938 117.441406 276.847656 117.171875 278.5 118.953125 C 279.535156 120.066406 279.589844 121.421875 279.21875 122.835938 C 278.511719 125.53125 277.832031 128.234375 277.125 130.933594 C 276.828125 132.066406 276.492188 133.195312 276.183594 134.324219 C 276.15625 134.429688 276.1875 134.546875 276.191406 134.65625 C 276.292969 134.628906 276.402344 134.617188 276.488281 134.566406 C 277.875 133.746094 279.257812 132.917969 280.640625 132.09375 C 282.101562 131.226562 283.558594 130.359375 285.023438 129.5 C 285.242188 129.367188 285.46875 129.234375 285.710938 129.148438 C 286.601562 128.828125 286.636719 128 286.808594 127.28125 C 287.460938 124.5625 288.085938 121.832031 288.710938 119.105469 C 289.09375 117.445312 289.367188 115.75 289.851562 114.121094 C 290.511719 111.894531 292.976562 110.898438 295.027344 112.070312 C 296.058594 112.660156 296.589844 113.570312 296.738281 114.75 C 296.855469 115.679688 296.566406 116.539062 296.386719 117.414062 C 296.046875 119.03125 295.652344 120.636719 295.277344 122.242188 C 295.191406 122.613281 295.058594 122.972656 294.980469 123.34375 C 294.957031 123.457031 295.039062 123.59375 295.074219 123.71875 C 295.164062 123.691406 295.265625 123.683594 295.339844 123.632812 C 296.308594 123.011719 297.253906 122.355469 298.242188 121.761719 C 299.8125 120.816406 301.410156 119.917969 302.996094 118.996094 C 304.265625 118.253906 305.527344 117.492188 306.800781 116.757812 C 307.546875 116.328125 308.28125 115.847656 309.082031 115.546875 C 310.757812 114.914062 312.476562 115.632812 313.382812 117.125 C 314.445312 118.871094 314.351562 120.535156 312.765625 121.996094 C 312.191406 122.527344 311.433594 122.867188 310.742188 123.269531 C 308.996094 124.289062 307.242188 125.300781 305.484375 126.296875 C 303.996094 127.140625 302.492188 127.949219 301 128.78125 C 300.351562 129.140625 299.707031 129.507812 299.066406 129.890625 C 298.964844 129.949219 298.914062 130.09375 298.835938 130.199219 C 298.933594 130.242188 299.03125 130.296875 299.132812 130.324219 C 299.875 130.550781 300.617188 130.765625 301.359375 131 C 303 131.515625 304.636719 132.050781 306.277344 132.554688 C 307.832031 133.03125 308.984375 134.46875 308.730469 136.511719 C 308.585938 137.671875 307.597656 139.019531 305.988281 139.367188 C 304.84375 139.609375 303.84375 139.222656 302.808594 138.902344 C 300.027344 138.042969 297.242188 137.195312 294.464844 136.335938 C 293.199219 135.945312 291.949219 135.496094 290.667969 135.160156 C 290.300781 135.0625 289.792969 135.160156 289.453125 135.351562 C 287.382812 136.5 285.34375 137.707031 283.289062 138.890625 C 282.242188 139.492188 281.179688 140.074219 280.132812 140.675781 C 280.03125 140.734375 279.980469 140.882812 279.90625 140.992188 C 280.003906 141.03125 280.101562 141.089844 280.203125 141.113281 C 281.113281 141.339844 282.027344 141.539062 282.929688 141.789062 C 285.425781 142.484375 287.914062 143.191406 290.402344 143.910156 C 291.097656 144.109375 291.789062 144.324219 292.460938 144.578125 C 293.664062 145.035156 294.363281 145.910156 294.601562 147.179688 C 294.976562 149.195312 293.761719 150.640625 292.21875 151.21875 C 291.394531 151.527344 290.53125 151.371094 289.699219 151.140625 C 287.035156 150.398438 284.375 149.652344 281.714844 148.910156 C 279.453125 148.277344 277.191406 147.652344 274.929688 147.011719 C 273.820312 146.695312 272.730469 146.296875 271.609375 146.042969 C 271.25 145.964844 270.769531 146.15625 270.425781 146.355469 C 267.730469 147.925781 265.0625 149.53125 262.375 151.113281 C 260.585938 152.167969 258.785156 153.195312 256.992188 154.246094 C 256.8125 154.351562 256.675781 154.527344 256.519531 154.667969 C 256.664062 154.785156 256.792969 154.921875 256.945312 155.015625 C 259.039062 156.277344 261.128906 157.542969 263.234375 158.78125 C 265.15625 159.914062 267.09375 161.019531 269.023438 162.132812 C 269.550781 162.4375 270.054688 162.78125 270.605469 163.027344 C 270.945312 163.175781 271.386719 163.320312 271.71875 163.230469 C 274.242188 162.570312 276.75 161.863281 279.257812 161.152344 C 281.015625 160.652344 282.757812 160.101562 284.515625 159.605469 C 286.394531 159.074219 288.28125 158.566406 290.171875 158.070312 C 292.007812 157.589844 293.898438 158.667969 294.492188 160.382812 C 295.125 162.226562 294.140625 164.339844 292.085938 164.9375 C 289.664062 165.640625 287.222656 166.277344 284.792969 166.949219 C 283.480469 167.308594 282.167969 167.6875 280.855469 168.054688 C 280.671875 168.105469 280.46875 168.109375 280.292969 168.175781 C 280.148438 168.230469 280.03125 168.347656 279.898438 168.4375 C 280.003906 168.535156 280.09375 168.652344 280.210938 168.722656 C 280.855469 169.09375 281.507812 169.449219 282.152344 169.816406 C 283.890625 170.8125 285.625 171.820312 287.371094 172.808594 C 288.238281 173.300781 289.125 173.765625 290.011719 174.21875 C 290.140625 174.285156 290.347656 174.246094 290.5 174.199219 C 292.882812 173.460938 295.257812 172.703125 297.644531 171.96875 C 299.816406 171.300781 301.992188 170.636719 304.179688 170.007812 C 306.359375 169.378906 308.746094 170.988281 308.738281 173.351562 C 308.730469 175.304688 307.511719 176.503906 305.621094 177.085938 C 304.332031 177.476562 303.039062 177.835938 301.746094 178.214844 C 300.902344 178.464844 300.0625 178.714844 299.226562 178.980469 C 299.082031 179.027344 298.960938 179.148438 298.832031 179.234375 C 298.925781 179.335938 299.003906 179.464844 299.117188 179.527344 C 300.683594 180.40625 302.257812 181.265625 303.816406 182.15625 C 306.101562 183.457031 308.371094 184.773438 310.644531 186.09375 C 311.335938 186.492188 312.023438 186.902344 312.691406 187.335938 C 313.457031 187.839844 313.796875 188.613281 313.949219 189.492188 C 314.238281 191.128906 313.539062 192.402344 312.308594 193.324219 C 311.046875 194.269531 309.78125 194.308594 308.175781 193.410156 C 306.832031 192.65625 305.507812 191.875 304.183594 191.089844 C 302.15625 189.886719 300.136719 188.671875 298.113281 187.46875 C 297.265625 186.964844 296.40625 186.476562 295.550781 185.992188 C 295.417969 185.917969 295.261719 185.886719 295.117188 185.835938 C 295.09375 186.023438 295.019531 186.222656 295.054688 186.398438 C 295.171875 186.976562 295.335938 187.542969 295.464844 188.117188 C 295.839844 189.800781 296.175781 191.492188 296.585938 193.164062 C 296.921875 194.535156 296.667969 195.730469 295.679688 196.726562 C 294.441406 197.976562 292.714844 198.109375 291.207031 197.152344 C 290.191406 196.503906 289.820312 195.480469 289.5625 194.390625 C 289.117188 192.496094 288.65625 190.605469 288.234375 188.707031 C 287.734375 186.460938 287.234375 184.214844 286.800781 181.957031 C 286.601562 180.925781 286 180.339844 285.136719 179.847656 C 282.386719 178.28125 279.664062 176.664062 276.925781 175.074219 C 276.75 174.972656 276.523438 174.960938 276.324219 174.90625 C 276.324219 175.097656 276.285156 175.300781 276.332031 175.480469 C 276.90625 177.691406 277.503906 179.894531 278.066406 182.105469 C 278.542969 183.992188 279.097656 185.867188 279.394531 187.78125 C 279.589844 189.03125 278.953125 190.148438 277.867188 190.867188 C 276.328125 191.894531 274.707031 191.699219 273.398438 190.539062 C 272.707031 189.933594 272.421875 189.042969 272.199219 188.152344 C 271.589844 185.75 270.96875 183.355469 270.359375 180.957031 C 269.710938 178.421875 269.070312 175.886719 268.421875 173.351562 C 268.152344 172.296875 267.871094 171.242188 267.613281 170.183594 C 267.464844 169.578125 266.933594 169.417969 266.488281 169.164062 C 264.269531 167.898438 262.046875 166.640625 259.824219 165.375 C 257.871094 164.261719 255.921875 163.144531 253.972656 162.03125 C 253.671875 161.859375 253.371094 161.691406 253.066406 161.53125 C 252.570312 161.273438 252.511719 161.3125 252.511719 161.890625 C 252.507812 163.191406 252.515625 164.488281 252.507812 165.789062 C 252.472656 169.816406 252.433594 173.847656 252.382812 177.875 C 252.375 178.292969 252.519531 178.589844 252.804688 178.875 C 255.171875 181.191406 257.523438 183.519531 259.882812 185.839844 C 261.730469 187.65625 263.589844 189.453125 265.417969 191.28125 C 266.03125 191.894531 266.699219 192.503906 267.121094 193.242188 C 267.835938 194.488281 267.664062 195.8125 266.816406 196.945312 C 265.996094 198.042969 264.808594 198.488281 263.449219 198.320312 C 262.6875 198.226562 262.015625 197.867188 261.46875 197.332031 C 259.546875 195.464844 257.636719 193.585938 255.730469 191.703125 C 254.738281 190.726562 253.761719 189.734375 252.773438 188.753906 C 252.679688 188.660156 252.546875 188.609375 252.429688 188.535156 C 252.378906 188.683594 252.277344 188.828125 252.28125 188.972656 C 252.300781 189.625 252.378906 190.277344 252.375 190.929688 C 252.371094 191.75 252.273438 192.570312 252.277344 193.390625 C 252.292969 195.589844 252.328125 197.789062 252.398438 199.984375 C 252.40625 200.265625 252.605469 200.59375 252.816406 200.800781 C 253.492188 201.457031 254.222656 202.058594 254.914062 202.703125 C 256.164062 203.863281 257.398438 205.039062 258.640625 206.203125 C 259.644531 207.140625 260.667969 208.050781 261.652344 209.007812 C 262.398438 209.734375 263.207031 210.4375 263.789062 211.289062 C 264.722656 212.667969 264.210938 214.640625 262.929688 215.710938 C 261.578125 216.84375 259.308594 216.621094 258.195312 215.46875 C 257.476562 214.726562 256.660156 214.074219 255.898438 213.371094 C 254.824219 212.378906 253.757812 211.375 252.683594 210.382812 C 252.632812 210.332031 252.515625 210.277344 252.496094 210.292969 C 252.4375 210.351562 252.375 210.441406 252.378906 210.515625 C 252.40625 211.613281 252.445312 212.710938 252.480469 213.808594 C 252.484375 213.941406 252.480469 214.070312 252.480469 214.199219 C 252.480469 218.078125 252.511719 221.957031 252.460938 225.832031 C 252.4375 227.585938 251.4375 228.804688 249.8125 229.253906 C 248.375 229.648438 247.007812 229.351562 245.917969 228.304688 C 245.292969 227.707031 244.921875 226.886719 244.917969 226.003906 C 244.894531 222.089844 244.902344 218.175781 244.917969 214.261719 C 244.921875 213.050781 244.992188 211.84375 245.023438 210.632812 C 245.023438 210.5 244.976562 210.363281 244.949219 210.230469 C 244.835938 210.3125 244.710938 210.386719 244.609375 210.480469 C 243.445312 211.566406 242.292969 212.667969 241.113281 213.742188 C 240.300781 214.484375 239.511719 215.277344 238.605469 215.890625 C 236.5625 217.277344 233.65625 216.117188 233.207031 213.542969 C 232.980469 212.238281 233.425781 211.210938 234.289062 210.347656 C 235.652344 208.988281 237.078125 207.6875 238.480469 206.367188 C 239.480469 205.429688 240.488281 204.496094 241.5 203.574219 C 242.589844 202.582031 243.695312 201.609375 244.78125 200.617188 C 244.902344 200.507812 244.957031 200.324219 245.027344 200.164062 C 245.054688 200.101562 245.03125 200.019531 245.03125 199.945312 C 245.070312 196.285156 245.109375 192.628906 245.144531 188.96875 C 245.144531 188.800781 245.070312 188.628906 245.03125 188.460938 C 244.902344 188.558594 244.753906 188.640625 244.640625 188.757812 C 243.78125 189.605469 242.9375 190.464844 242.078125 191.308594 C 240.035156 193.320312 238.003906 195.339844 235.933594 197.324219 C 235.039062 198.183594 233.90625 198.542969 232.695312 198.253906 C 231.289062 197.917969 230.355469 197.042969 229.988281 195.558594 C 229.589844 193.9375 230.550781 192.421875 231.667969 191.519531 C 231.761719 191.441406 231.871094 191.378906 231.960938 191.289062 C 235.332031 187.960938 238.699219 184.628906 242.078125 181.300781 C 242.929688 180.464844 243.820312 179.664062 244.65625 178.808594 C 244.867188 178.59375 245.023438 178.222656 245.027344 177.917969 C 245.054688 174.152344 245.058594 170.386719 245.042969 166.621094 C 245.039062 165.132812 244.96875 163.644531 244.941406 162.15625 C 244.929688 161.269531 244.925781 161.242188 244.101562 161.699219 C 242.214844 162.742188 240.34375 163.820312 238.460938 164.878906 C 237.03125 165.683594 235.597656 166.476562 234.167969 167.28125 C 232.875 168.011719 231.574219 168.730469 230.300781 169.496094 C 230.070312 169.636719 229.882812 169.953125 229.808594 170.226562 C 229.265625 172.210938 228.761719 174.210938 228.242188 176.203125 C 227.679688 178.363281 227.113281 180.523438 226.5625 182.6875 C 226.035156 184.753906 225.589844 186.84375 224.972656 188.878906 C 224.550781 190.277344 223.59375 191.1875 222.035156 191.421875 C 219.941406 191.734375 218.242188 190.066406 218.070312 188.394531 C 217.949219 187.242188 218.351562 186.230469 218.605469 185.183594 C 219.246094 182.507812 219.96875 179.851562 220.664062 177.1875 C 220.847656 176.484375 221.042969 175.785156 221.226562 175.085938 C 221.261719 174.960938 221.261719 174.832031 221.277344 174.707031 C 221.144531 174.742188 220.996094 174.753906 220.878906 174.820312 C 219.847656 175.417969 218.816406 176.027344 217.789062 176.632812 C 216.519531 177.378906 215.253906 178.132812 213.984375 178.871094 C 213.222656 179.316406 212.457031 179.75 211.683594 180.167969 C 211.023438 180.527344 210.847656 181.140625 210.695312 181.8125 C 210.101562 184.476562 209.476562 187.132812 208.855469 189.789062 C 208.417969 191.648438 207.980469 193.507812 207.511719 195.355469 C 207.1875 196.632812 206.222656 197.300781 205.042969 197.617188 C 202.878906 198.199219 200.890625 196.550781 200.714844 194.5 C 200.617188 193.410156 200.980469 192.414062 201.1875 191.386719 C 201.507812 189.785156 201.914062 188.203125 202.292969 186.613281 C 202.339844 186.414062 202.425781 186.222656 202.480469 186.023438 C 202.511719 185.910156 202.511719 185.792969 202.527344 185.675781 C 202.40625 185.691406 202.257812 185.664062 202.160156 185.722656 C 201.28125 186.242188 200.410156 186.777344 199.53125 187.304688 C 198.253906 188.066406 196.96875 188.824219 195.6875 189.582031 C 195.535156 189.671875 195.375 189.75 195.191406 189.859375 Z M 195.191406 189.859375 " fill-opacity="1" fill-rule="nonzero"/></g><g clip-path="url(#7dc002fd6e)"><path fill="#000000" d="M 65.914062 178.59375 L 225.648438 178.59375 C 229.460938 178.59375 232.550781 181.6875 232.550781 185.5 L 232.550781 204.484375 L 249.933594 204.484375 C 251.757812 204.484375 253.429688 205.503906 254.265625 207.125 L 254.738281 208.046875 L 266.714844 231.304688 C 267.203125 232.25 267.582031 233.242188 267.859375 234.261719 C 267.890625 234.253906 267.917969 234.242188 267.953125 234.242188 L 268.0625 234.242188 C 268.257812 234.242188 268.417969 234.402344 268.417969 234.597656 C 268.417969 234.789062 268.257812 234.949219 268.0625 234.949219 L 268.027344 234.949219 C 268.277344 236.042969 268.40625 237.164062 268.40625 238.296875 L 268.40625 268.617188 L 268.410156 268.617188 L 268.410156 280.835938 C 268.410156 282.070312 267.71875 283.144531 266.707031 283.695312 C 266.246094 283.945312 265.714844 284.089844 265.15625 284.089844 L 255.023438 284.089844 C 253.410156 290.605469 248.472656 295.226562 242.476562 295.226562 L 236.074219 295.226562 C 230.078125 295.226562 225.140625 290.605469 223.523438 284.089844 L 201.839844 284.089844 C 200.222656 290.605469 195.285156 295.226562 189.289062 295.226562 L 182.890625 295.226562 C 176.890625 295.226562 171.957031 290.605469 170.339844 284.089844 L 157.976562 284.089844 C 156.359375 290.605469 151.421875 295.226562 145.425781 295.226562 L 139.027344 295.226562 C 133.027344 295.226562 128.09375 290.605469 126.476562 284.089844 L 104.789062 284.089844 C 103.175781 290.605469 98.238281 295.226562 92.242188 295.226562 L 85.839844 295.226562 C 79.84375 295.226562 74.90625 290.605469 73.289062 284.089844 L 72.726562 284.089844 L 72.726562 271.65625 L 67.941406 271.65625 L 67.941406 266.722656 L 72.726562 266.722656 L 72.726562 262.574219 L 64.550781 262.574219 C 62.328125 262.574219 60.523438 260.769531 60.523438 258.546875 L 60.523438 183.980469 C 60.527344 181.007812 62.9375 178.59375 65.914062 178.59375 Z M 65.914062 178.59375 " fill-opacity="1" fill-rule="nonzero"/></g><g clip-path="url(#8d7bee763a)"><path fill="#efefef" d="M 228.75 182.398438 L 228.75 204.484375 L 174.621094 204.484375 L 174.621094 182.398438 Z M 228.089844 184.285156 L 186.972656 184.285156 L 186.972656 186.796875 L 228.089844 186.796875 Z M 177.417969 201.515625 L 226.8125 201.515625 C 227.007812 201.515625 227.167969 201.355469 227.167969 201.160156 C 227.167969 200.964844 227.007812 200.808594 226.8125 200.808594 L 177.417969 200.808594 C 177.222656 200.808594 177.066406 200.964844 177.066406 201.160156 C 177.066406 201.355469 177.222656 201.515625 177.417969 201.515625 Z M 185.101562 186.796875 L 185.101562 184.285156 L 175.652344 184.285156 L 175.652344 186.796875 Z M 229.457031 204.484375 L 232.550781 204.484375 L 232.550781 185.5 C 232.550781 181.6875 229.460938 178.59375 225.648438 178.59375 L 168.050781 178.59375 L 168.050781 204.964844 C 168.644531 204.660156 169.316406 204.484375 170.027344 204.484375 L 173.914062 204.484375 L 173.914062 182.042969 C 173.914062 181.847656 174.074219 181.691406 174.269531 181.691406 L 229.101562 181.691406 C 229.296875 181.691406 229.457031 181.847656 229.457031 182.042969 Z M 66.628906 256.882812 L 66.628906 184.285156 L 161.949219 184.285156 L 161.949219 256.882812 Z M 70.921875 252.738281 L 145.886719 252.738281 C 146.082031 252.738281 146.242188 252.578125 146.242188 252.382812 C 146.242188 252.1875 146.082031 252.03125 145.886719 252.03125 L 70.921875 252.03125 C 70.726562 252.03125 70.566406 252.1875 70.566406 252.382812 C 70.570312 252.578125 70.726562 252.738281 70.921875 252.738281 Z M 145.886719 189.414062 L 70.921875 189.414062 C 70.726562 189.414062 70.566406 189.574219 70.566406 189.769531 C 70.566406 189.964844 70.726562 190.125 70.921875 190.125 L 145.886719 190.125 C 146.082031 190.125 146.242188 189.964844 146.242188 189.769531 C 146.242188 189.574219 146.082031 189.414062 145.886719 189.414062 Z M 145.886719 197.242188 L 70.921875 197.242188 C 70.726562 197.242188 70.566406 197.402344 70.566406 197.597656 C 70.566406 197.792969 70.726562 197.949219 70.921875 197.949219 L 145.886719 197.949219 C 146.082031 197.949219 146.242188 197.792969 146.242188 197.597656 C 146.242188 197.402344 146.082031 197.242188 145.886719 197.242188 Z M 145.886719 205.070312 L 70.921875 205.070312 C 70.726562 205.070312 70.566406 205.226562 70.566406 205.421875 C 70.566406 205.617188 70.726562 205.777344 70.921875 205.777344 L 145.886719 205.777344 C 146.082031 205.777344 146.242188 205.617188 146.242188 205.421875 C 146.242188 205.226562 146.082031 205.070312 145.886719 205.070312 Z M 145.886719 212.898438 L 70.921875 212.898438 C 70.726562 212.898438 70.566406 213.054688 70.566406 213.25 C 70.566406 213.445312 70.726562 213.601562 70.921875 213.601562 L 145.886719 213.601562 C 146.082031 213.601562 146.242188 213.445312 146.242188 213.25 C 146.242188 213.054688 146.082031 212.898438 145.886719 212.898438 Z M 145.886719 220.722656 L 70.921875 220.722656 C 70.726562 220.722656 70.566406 220.882812 70.566406 221.078125 C 70.566406 221.273438 70.726562 221.429688 70.921875 221.429688 L 145.886719 221.429688 C 146.082031 221.429688 146.242188 221.273438 146.242188 221.078125 C 146.242188 220.882812 146.082031 220.722656 145.886719 220.722656 Z M 145.886719 228.550781 L 70.921875 228.550781 C 70.726562 228.550781 70.566406 228.707031 70.566406 228.902344 C 70.566406 229.097656 70.726562 229.257812 70.921875 229.257812 L 145.886719 229.257812 C 146.082031 229.257812 146.242188 229.097656 146.242188 228.902344 C 146.242188 228.707031 146.082031 228.550781 145.886719 228.550781 Z M 145.886719 236.378906 L 70.921875 236.378906 C 70.726562 236.378906 70.566406 236.535156 70.566406 236.730469 C 70.566406 236.925781 70.726562 237.082031 70.921875 237.082031 L 145.886719 237.082031 C 146.082031 237.082031 146.242188 236.925781 146.242188 236.730469 C 146.242188 236.535156 146.082031 236.378906 145.886719 236.378906 Z M 145.886719 244.203125 L 70.921875 244.203125 C 70.726562 244.203125 70.566406 244.363281 70.566406 244.558594 C 70.566406 244.753906 70.726562 244.910156 70.921875 244.910156 L 145.886719 244.910156 C 146.082031 244.910156 146.242188 244.753906 146.242188 244.558594 C 146.242188 244.363281 146.082031 244.203125 145.886719 244.203125 Z M 159.246094 203.566406 C 159.246094 202.238281 158.171875 201.160156 156.84375 201.160156 L 153.484375 201.160156 C 152.15625 201.160156 151.082031 202.238281 151.082031 203.566406 L 151.082031 251.648438 C 151.082031 252.976562 152.15625 254.054688 153.484375 254.054688 L 156.84375 254.054688 C 158.171875 254.054688 159.246094 252.976562 159.246094 251.648438 Z M 175.882812 279.414062 C 175.882812 284.777344 179.019531 289.125 182.890625 289.125 C 186.761719 289.125 189.898438 284.777344 189.898438 279.414062 C 189.898438 274.054688 186.761719 269.707031 182.890625 269.707031 C 179.019531 269.707031 175.882812 274.054688 175.882812 279.414062 Z M 78.832031 279.414062 C 78.832031 284.777344 81.972656 289.125 85.84375 289.125 C 89.714844 289.125 92.851562 284.777344 92.851562 279.414062 C 92.851562 274.054688 89.714844 269.707031 85.84375 269.707031 C 81.972656 269.707031 78.832031 274.054688 78.832031 279.414062 Z M 161.324219 274.742188 L 161.324219 262.570312 L 158.054688 262.570312 L 158.054688 274.742188 Z M 255.523438 217.6875 C 255.632812 217.542969 255.648438 217.347656 255.566406 217.1875 L 255.074219 216.234375 C 254.9375 215.96875 254.589844 215.894531 254.355469 216.082031 L 246.78125 222.140625 L 240.152344 227.445312 L 239.199219 228.207031 L 236.605469 230.28125 C 236.257812 230.5625 236.453125 231.128906 236.902344 231.128906 L 243.527344 231.132812 C 244.808594 231.132812 246.019531 230.523438 246.78125 229.492188 L 248.296875 227.445312 L 255.195312 218.136719 Z M 250.855469 212.183594 C 251.125 211.941406 250.953125 211.496094 250.59375 211.496094 L 247.21875 211.496094 C 247.152344 211.496094 247.089844 211.511719 247.03125 211.542969 L 246.78125 211.675781 L 239.199219 215.730469 L 236.605469 217.117188 L 228.195312 221.613281 L 217.277344 227.445312 L 211.800781 230.375 C 211.644531 230.460938 211.5625 230.644531 211.605469 230.816406 C 211.652344 230.992188 211.808594 231.113281 211.988281 231.113281 L 226.570312 231.121094 C 228.53125 231.125 230.421875 230.402344 231.886719 229.097656 L 233.738281 227.445312 L 236.605469 224.886719 L 239.199219 222.578125 L 246.78125 215.8125 Z M 223.171875 258.648438 L 208.53125 258.648438 L 208.53125 252.316406 L 220.007812 252.316406 Z M 210.195312 252.445312 C 210 252.445312 209.839844 252.605469 209.839844 252.800781 L 209.839844 258.058594 C 209.839844 258.253906 210 258.414062 210.195312 258.414062 C 210.390625 258.414062 210.546875 258.253906 210.546875 258.058594 L 210.546875 252.800781 C 210.546875 252.605469 210.390625 252.445312 210.195312 252.445312 Z M 226.816406 266.074219 L 208.460938 266.074219 L 208.460938 259.738281 L 223.648438 259.738281 Z M 210.546875 260.355469 C 210.546875 260.160156 210.390625 260.003906 210.195312 260.003906 C 210 260.003906 209.839844 260.160156 209.839844 260.355469 L 209.839844 265.617188 C 209.839844 265.8125 210 265.96875 210.195312 265.96875 C 210.390625 265.96875 210.546875 265.8125 210.546875 265.617188 Z M 263.972656 252.316406 L 268.40625 252.316406 L 268.40625 258.648438 L 260.808594 258.648438 Z M 266.464844 258.058594 C 266.464844 258.253906 266.621094 258.414062 266.816406 258.414062 C 267.011719 258.414062 267.171875 258.253906 267.171875 258.058594 L 267.171875 252.800781 C 267.171875 252.605469 267.011719 252.445312 266.816406 252.445312 C 266.621094 252.445312 266.464844 252.605469 266.464844 252.800781 Z M 260.332031 259.738281 L 268.40625 259.738281 L 268.40625 266.074219 L 257.167969 266.074219 Z M 266.464844 265.617188 C 266.464844 265.8125 266.621094 265.96875 266.816406 265.96875 C 267.011719 265.96875 267.171875 265.8125 267.171875 265.617188 L 267.171875 260.355469 C 267.171875 260.160156 267.011719 260.003906 266.816406 260.003906 C 266.621094 260.003906 266.464844 260.160156 266.464844 260.355469 Z M 258.042969 280.246094 L 226.167969 280.246094 C 224.074219 280.246094 222.375 278.550781 222.375 276.457031 L 222.375 268.617188 L 261.832031 268.617188 L 261.832031 276.457031 C 261.832031 278.550781 260.136719 280.246094 258.042969 280.246094 Z M 224.878906 270.304688 C 224.683594 270.304688 224.527344 270.464844 224.527344 270.660156 L 224.527344 278.066406 C 224.527344 278.261719 224.683594 278.417969 224.878906 278.417969 C 225.074219 278.417969 225.234375 278.261719 225.234375 278.066406 L 225.234375 270.660156 C 225.234375 270.464844 225.074219 270.304688 224.878906 270.304688 Z M 231.0625 270.660156 C 231.0625 270.464844 230.90625 270.304688 230.710938 270.304688 C 230.515625 270.304688 230.355469 270.464844 230.355469 270.660156 L 230.355469 278.066406 C 230.355469 278.261719 230.515625 278.417969 230.710938 278.417969 C 230.90625 278.417969 231.0625 278.261719 231.0625 278.066406 Z M 236.894531 270.660156 C 236.894531 270.464844 236.734375 270.304688 236.539062 270.304688 C 236.34375 270.304688 236.1875 270.464844 236.1875 270.660156 L 236.1875 278.066406 C 236.1875 278.261719 236.34375 278.417969 236.539062 278.417969 C 236.734375 278.417969 236.894531 278.261719 236.894531 278.066406 Z M 242.722656 270.660156 C 242.722656 270.464844 242.566406 270.304688 242.371094 270.304688 C 242.175781 270.304688 242.015625 270.464844 242.015625 270.660156 L 242.015625 278.066406 C 242.015625 278.261719 242.175781 278.417969 242.371094 278.417969 C 242.566406 278.417969 242.722656 278.261719 242.722656 278.066406 Z M 248.554688 270.660156 C 248.554688 270.464844 248.394531 270.304688 248.199219 270.304688 C 248.003906 270.304688 247.847656 270.464844 247.847656 270.660156 L 247.847656 278.066406 C 247.847656 278.261719 248.003906 278.417969 248.199219 278.417969 C 248.394531 278.417969 248.554688 278.261719 248.554688 278.066406 Z M 254.03125 270.304688 C 253.835938 270.304688 253.675781 270.464844 253.675781 270.660156 L 253.675781 278.066406 C 253.675781 278.261719 253.835938 278.417969 254.03125 278.417969 C 254.226562 278.417969 254.382812 278.261719 254.382812 278.066406 L 254.382812 270.660156 C 254.382812 270.464844 254.226562 270.304688 254.03125 270.304688 Z M 260.214844 270.660156 C 260.214844 270.464844 260.054688 270.304688 259.859375 270.304688 C 259.664062 270.304688 259.507812 270.464844 259.507812 270.660156 L 259.507812 278.066406 C 259.507812 278.261719 259.664062 278.417969 259.859375 278.417969 C 260.054688 278.417969 260.214844 278.261719 260.214844 278.066406 Z M 196.230469 223.148438 C 196.414062 223 196.492188 222.753906 196.429688 222.527344 L 195.6875 219.894531 C 195.566406 219.472656 195.050781 219.324219 194.726562 219.613281 L 192.390625 221.695312 L 186.972656 226.527344 L 185.121094 228.179688 L 184.488281 228.742188 C 184.363281 228.855469 184.292969 229.011719 184.292969 229.179688 L 184.292969 230.554688 C 184.292969 230.882812 184.554688 231.144531 184.882812 231.144531 L 186.023438 231.144531 C 186.15625 231.144531 186.289062 231.101562 186.390625 231.015625 L 186.972656 230.550781 L 187.652344 230.007812 L 192.390625 226.214844 Z M 213.515625 274.742188 C 213.515625 272.90625 212.851562 271.421875 212.027344 271.421875 C 211.207031 271.421875 210.539062 272.90625 210.539062 274.742188 C 210.539062 276.578125 211.207031 278.066406 212.027344 278.066406 C 212.851562 278.066406 213.515625 276.578125 213.515625 274.742188 Z M 264.609375 274.742188 C 264.609375 276.578125 265.273438 278.066406 266.097656 278.066406 C 266.917969 278.066406 267.585938 276.578125 267.585938 274.742188 C 267.585938 272.90625 266.917969 271.421875 266.097656 271.421875 C 265.273438 271.421875 264.609375 272.90625 264.609375 274.742188 Z M 147.203125 262.433594 L 102.738281 262.433594 C 102.75 262.445312 102.761719 262.457031 102.773438 262.46875 L 106.566406 267.164062 C 106.972656 267.664062 106.613281 268.414062 105.96875 268.414062 L 104.765625 268.414062 C 105.363281 268.785156 106.039062 269.039062 106.769531 269.136719 L 106.769531 274.742188 L 110.039062 274.742188 L 110.039062 269.1875 L 137.773438 269.1875 L 137.773438 274.742188 L 141.042969 274.742188 L 141.042969 269.1875 L 142.089844 269.1875 C 144.914062 269.1875 147.203125 266.898438 147.203125 264.074219 Z M 147.203125 262.433594 " fill-opacity="1" fill-rule="nonzero"/></g><g clip-path="url(#84fd21010e)"><path fill="#00ccff" d="M 165.683594 282.167969 L 165.683594 208.828125 C 165.683594 207.140625 166.648438 205.683594 168.050781 204.964844 C 168.644531 204.660156 169.316406 204.484375 170.027344 204.484375 L 249.933594 204.484375 C 251.757812 204.484375 253.429688 205.503906 254.265625 207.125 L 254.738281 208.046875 L 202.234375 208.046875 L 209.003906 234.5625 L 267.597656 234.59375 C 267.597656 234.789062 267.757812 234.949219 267.953125 234.949219 L 268.027344 234.949219 C 268.277344 236.042969 268.40625 237.164062 268.40625 238.292969 L 268.40625 252.316406 L 263.972656 252.316406 L 260.808594 258.648438 L 268.40625 258.648438 L 268.40625 259.742188 L 260.332031 259.742188 L 257.167969 266.074219 L 268.40625 266.074219 L 268.40625 268.617188 L 208.878906 268.617188 C 207.214844 268.617188 205.867188 269.964844 205.867188 271.628906 L 205.867188 284.089844 L 265.15625 284.089844 C 265.71875 284.089844 266.246094 283.945312 266.707031 283.695312 C 266.246094 283.945312 265.714844 284.089844 265.15625 284.089844 L 195.761719 284.089844 C 194.746094 284.089844 193.90625 283.300781 193.84375 282.285156 C 193.476562 276.304688 191.546875 257.507812 181.882812 257.507812 C 172.289062 257.507812 171.671875 276.035156 171.726562 282.152344 C 171.738281 283.21875 170.875 284.089844 169.804688 284.089844 L 167.605469 284.089844 C 166.542969 284.089844 165.683594 283.226562 165.683594 282.167969 Z M 171.363281 207.695312 C 171.164062 207.695312 171.007812 207.851562 171.007812 208.046875 L 171.007812 259.738281 C 171.007812 259.933594 171.164062 260.09375 171.363281 260.09375 C 171.558594 260.09375 171.714844 259.933594 171.714844 259.738281 L 171.714844 208.046875 C 171.714844 207.851562 171.558594 207.695312 171.363281 207.695312 Z M 175.097656 208.046875 L 175.097656 234.59375 L 199.59375 234.59375 L 197.441406 231.761719 C 196.933594 231.839844 196.390625 231.882812 195.828125 231.882812 C 192.855469 231.882812 190.449219 230.683594 190.449219 229.207031 C 190.449219 227.726562 192.855469 226.527344 195.828125 226.527344 C 198.800781 226.527344 201.207031 227.726562 201.207031 229.207031 C 201.207031 229.890625 200.6875 230.511719 199.84375 230.984375 L 202.460938 234.59375 L 203.480469 234.59375 L 196.003906 208.046875 Z M 203.480469 244.589844 L 177.417969 244.589844 C 177.222656 244.589844 177.066406 244.746094 177.066406 244.941406 C 177.066406 245.136719 177.222656 245.296875 177.417969 245.296875 L 203.480469 245.296875 C 203.675781 245.296875 203.832031 245.136719 203.832031 244.941406 C 203.832031 244.746094 203.675781 244.589844 203.480469 244.589844 Z M 197.625 236.519531 L 204.789062 236.519531 C 204.984375 236.519531 205.144531 236.359375 205.144531 236.167969 C 205.144531 235.972656 204.984375 235.8125 204.789062 235.8125 L 197.625 235.8125 C 197.429688 235.8125 197.273438 235.972656 197.273438 236.167969 C 197.273438 236.359375 197.429688 236.519531 197.625 236.519531 Z M 177.417969 238.234375 L 184.582031 238.234375 C 184.777344 238.234375 184.9375 238.078125 184.9375 237.882812 C 184.9375 237.6875 184.777344 237.527344 184.582031 237.527344 L 177.417969 237.527344 C 177.222656 237.527344 177.066406 237.6875 177.066406 237.882812 C 177.066406 238.078125 177.222656 238.234375 177.417969 238.234375 Z M 208.53125 258.648438 L 223.171875 258.648438 L 220.007812 252.316406 L 208.53125 252.316406 Z M 208.460938 259.738281 L 208.460938 266.074219 L 226.8125 266.074219 L 223.648438 259.738281 Z M 265.742188 250.859375 C 265.742188 251.058594 265.902344 251.214844 266.097656 251.214844 C 266.292969 251.214844 266.449219 251.058594 266.449219 250.859375 L 266.449219 238.816406 C 266.449219 238.621094 266.292969 238.464844 266.097656 238.464844 C 265.902344 238.464844 265.742188 238.621094 265.742188 238.816406 Z M 265.3125 237.777344 C 265.507812 237.777344 265.664062 237.617188 265.664062 237.421875 C 265.664062 237.230469 265.507812 237.070312 265.3125 237.070312 L 213.621094 237.070312 C 213.425781 237.070312 213.265625 237.226562 213.265625 237.421875 C 213.265625 237.617188 213.425781 237.777344 213.621094 237.777344 Z M 260.613281 239.925781 C 260.613281 239.730469 260.453125 239.570312 260.257812 239.570312 L 221.546875 239.570312 C 221.351562 239.570312 221.191406 239.730469 221.191406 239.925781 C 221.191406 240.121094 221.351562 240.277344 221.546875 240.277344 L 260.257812 240.277344 C 260.453125 240.277344 260.613281 240.121094 260.613281 239.925781 Z M 259.859375 252.316406 L 223.015625 252.316406 L 228.105469 266.074219 L 254.773438 266.074219 Z M 208.53125 267.679688 L 266.816406 267.679688 C 267.011719 267.679688 267.171875 267.519531 267.171875 267.324219 C 267.171875 267.128906 267.011719 266.972656 266.816406 266.972656 L 208.53125 266.972656 C 208.335938 266.972656 208.179688 267.128906 208.179688 267.324219 C 208.179688 267.519531 208.335938 267.679688 208.53125 267.679688 Z M 206.800781 266.425781 C 206.996094 266.425781 207.15625 266.269531 207.15625 266.074219 L 207.15625 236.1875 C 207.15625 236.152344 207.152344 236.121094 207.140625 236.089844 L 199.25 208.675781 C 199.199219 208.488281 199.003906 208.382812 198.8125 208.433594 C 198.625 208.488281 198.519531 208.683594 198.570312 208.871094 L 206.449219 236.234375 L 206.449219 266.074219 C 206.449219 266.269531 206.605469 266.425781 206.800781 266.425781 Z M 198.558594 281.792969 C 198.550781 281.988281 198.707031 282.152344 198.902344 282.15625 C 198.90625 282.15625 198.90625 282.15625 198.910156 282.15625 C 199.101562 282.15625 199.257812 282.003906 199.265625 281.8125 C 199.28125 281.214844 199.636719 267.0625 194.984375 260.078125 C 189.234375 251.453125 179.121094 254.09375 179.019531 254.121094 C 178.832031 254.171875 178.722656 254.363281 178.773438 254.554688 C 178.824219 254.742188 179.019531 254.851562 179.207031 254.800781 C 179.304688 254.777344 188.929688 252.277344 194.394531 260.472656 C 198.925781 267.265625 198.5625 281.648438 198.558594 281.792969 Z M 175.097656 257.859375 C 175.292969 257.859375 175.453125 257.703125 175.453125 257.507812 L 175.453125 237.421875 C 175.453125 237.230469 175.292969 237.070312 175.097656 237.070312 C 174.902344 237.070312 174.746094 237.226562 174.746094 237.421875 L 174.746094 257.507812 C 174.746094 257.703125 174.902344 257.859375 175.097656 257.859375 Z M 102.773438 262.46875 C 102.761719 262.457031 102.75 262.445312 102.738281 262.433594 C 102.59375 262.277344 102.390625 262.183594 102.175781 262.183594 L 76.574219 262.183594 C 76.289062 262.183594 76.042969 262.339844 75.910156 262.570312 C 75.84375 262.683594 75.804688 262.8125 75.804688 262.953125 L 75.804688 263.960938 C 75.804688 264.382812 76.148438 264.726562 76.574219 264.726562 L 97.101562 264.726562 C 97.324219 264.726562 97.535156 264.824219 97.683594 264.996094 L 100.390625 268.148438 C 100.535156 268.316406 100.75 268.414062 100.972656 268.414062 L 105.96875 268.414062 C 106.613281 268.414062 106.972656 267.664062 106.566406 267.164062 Z M 102.773438 262.46875 " fill-opacity="1" fill-rule="nonzero"/></g><g clip-path="url(#d9190ac5c6)"><path fill="#cecccd" d="M 65.914062 178.59375 L 168.050781 178.59375 L 168.050781 204.964844 C 166.644531 205.683594 165.683594 207.140625 165.683594 208.828125 L 165.683594 262.570312 L 147.203125 262.570312 L 147.203125 262.4375 L 102.738281 262.4375 C 102.59375 262.277344 102.390625 262.183594 102.175781 262.183594 L 76.574219 262.183594 C 76.289062 262.183594 76.042969 262.339844 75.910156 262.570312 L 64.554688 262.570312 C 62.328125 262.570312 60.527344 260.769531 60.527344 258.546875 L 60.527344 183.980469 C 60.527344 181.007812 62.9375 178.59375 65.914062 178.59375 Z M 161.949219 184.285156 L 66.628906 184.285156 L 66.628906 256.882812 L 161.949219 256.882812 Z M 63.761719 259.519531 C 63.761719 259.714844 63.917969 259.875 64.113281 259.875 L 161.945312 259.875 C 162.144531 259.875 162.300781 259.714844 162.300781 259.519531 C 162.300781 259.324219 162.144531 259.167969 161.945312 259.167969 L 64.46875 259.167969 L 64.46875 181.085938 C 64.46875 180.890625 64.308594 180.734375 64.113281 180.734375 C 63.917969 180.734375 63.761719 180.890625 63.761719 181.085938 Z M 104.792969 274.742188 C 105.15625 276.214844 105.351562 277.78125 105.351562 279.414062 C 105.351562 279.503906 105.347656 279.589844 105.347656 279.675781 L 165.683594 279.675781 L 165.683594 274.742188 Z M 205.867188 284.085938 L 205.867188 271.628906 C 205.867188 269.964844 207.214844 268.617188 208.878906 268.617188 L 222.378906 268.617188 L 222.378906 276.457031 C 222.378906 278.546875 224.074219 280.246094 226.167969 280.246094 L 258.042969 280.246094 C 260.136719 280.246094 261.832031 278.546875 261.832031 276.457031 L 261.832031 268.617188 L 268.410156 268.617188 L 268.410156 280.835938 C 268.410156 282.070312 267.71875 283.144531 266.707031 283.695312 C 266.246094 283.945312 265.71875 284.085938 265.15625 284.085938 Z M 212.027344 271.421875 C 211.207031 271.421875 210.539062 272.90625 210.539062 274.742188 C 210.539062 276.578125 211.207031 278.066406 212.027344 278.066406 C 212.851562 278.066406 213.515625 276.578125 213.515625 274.742188 C 213.515625 272.90625 212.851562 271.421875 212.027344 271.421875 Z M 266.097656 278.066406 C 266.917969 278.066406 267.585938 276.578125 267.585938 274.742188 C 267.585938 272.90625 266.917969 271.421875 266.097656 271.421875 C 265.273438 271.421875 264.609375 272.90625 264.609375 274.742188 C 264.609375 276.578125 265.273438 278.066406 266.097656 278.066406 Z M 156.84375 254.054688 L 153.484375 254.054688 C 152.15625 254.054688 151.078125 252.976562 151.078125 251.648438 L 151.078125 203.566406 C 151.078125 202.238281 152.15625 201.160156 153.484375 201.160156 L 156.84375 201.160156 C 158.171875 201.160156 159.246094 202.238281 159.246094 203.566406 L 159.246094 251.648438 C 159.246094 252.976562 158.171875 254.054688 156.84375 254.054688 Z M 156.753906 206.691406 C 156.558594 206.691406 156.402344 206.847656 156.402344 207.042969 L 156.402344 249.925781 C 156.402344 250.121094 156.558594 250.28125 156.753906 250.28125 C 156.953125 250.28125 157.109375 250.121094 157.109375 249.925781 L 157.109375 207.042969 C 157.109375 206.847656 156.953125 206.691406 156.753906 206.691406 Z M 186.96875 186.796875 L 228.089844 186.796875 L 228.089844 184.285156 L 186.972656 184.285156 L 186.972656 186.796875 Z M 175.652344 184.285156 L 175.652344 186.796875 L 185.101562 186.796875 L 185.101562 184.285156 Z M 175.652344 184.285156 " fill-opacity="1" fill-rule="nonzero"/></g><g clip-path="url(#43ab959264)"><path fill="#000000" d="M 223.523438 284.089844 C 225.140625 290.605469 230.078125 295.226562 236.074219 295.226562 L 242.472656 295.226562 C 248.472656 295.226562 253.410156 290.605469 255.023438 284.089844 Z M 174.269531 181.691406 L 229.101562 181.691406 C 229.296875 181.691406 229.457031 181.847656 229.457031 182.042969 L 229.457031 204.484375 L 228.75 204.484375 L 228.75 182.398438 L 174.621094 182.398438 L 174.621094 204.484375 L 173.914062 204.484375 L 173.914062 182.042969 C 173.914062 181.847656 174.074219 181.691406 174.269531 181.691406 Z M 75.910156 262.570312 L 72.730469 262.570312 L 72.730469 266.722656 L 67.945312 266.722656 L 67.945312 271.65625 L 72.730469 271.65625 L 72.730469 284.089844 L 73.292969 284.089844 C 74.910156 290.605469 79.84375 295.226562 85.84375 295.226562 L 92.242188 295.226562 C 98.242188 295.226562 103.175781 290.605469 104.792969 284.089844 L 126.476562 284.089844 C 128.09375 290.605469 133.03125 295.226562 139.027344 295.226562 L 145.429688 295.226562 C 151.425781 295.226562 156.363281 290.605469 157.976562 284.089844 L 167.605469 284.089844 C 166.542969 284.089844 165.683594 283.226562 165.683594 282.167969 L 165.683594 279.675781 L 105.347656 279.675781 C 105.347656 279.589844 105.355469 279.503906 105.355469 279.414062 C 105.355469 277.78125 105.15625 276.214844 104.792969 274.742188 L 106.769531 274.742188 L 106.769531 269.136719 C 106.042969 269.039062 105.363281 268.785156 104.765625 268.414062 L 100.972656 268.414062 C 100.75 268.414062 100.535156 268.316406 100.390625 268.144531 L 97.683594 264.996094 C 97.539062 264.824219 97.324219 264.726562 97.101562 264.726562 L 76.574219 264.726562 C 76.148438 264.726562 75.804688 264.382812 75.804688 263.957031 L 75.804688 262.949219 C 75.804688 262.8125 75.84375 262.683594 75.910156 262.570312 Z M 78.832031 279.414062 C 78.832031 274.054688 81.972656 269.707031 85.84375 269.707031 C 89.714844 269.707031 92.851562 274.054688 92.851562 279.414062 C 92.851562 284.777344 89.714844 289.125 85.84375 289.125 C 81.972656 289.125 78.832031 284.777344 78.832031 279.414062 Z M 141.042969 274.742188 L 141.042969 269.1875 L 142.089844 269.1875 C 144.914062 269.1875 147.203125 266.898438 147.203125 264.074219 L 147.203125 262.570312 L 158.054688 262.570312 L 158.054688 274.742188 Z M 161.324219 274.742188 L 161.324219 262.570312 L 165.683594 262.570312 L 165.683594 274.742188 Z M 110.039062 274.742188 L 110.039062 269.1875 L 137.773438 269.1875 L 137.773438 274.742188 Z M 64.113281 180.734375 C 64.3125 180.734375 64.46875 180.890625 64.46875 181.085938 L 64.46875 259.167969 L 161.945312 259.167969 C 162.144531 259.167969 162.300781 259.324219 162.300781 259.519531 C 162.300781 259.714844 162.144531 259.871094 161.945312 259.871094 L 64.113281 259.871094 C 63.917969 259.871094 63.761719 259.714844 63.761719 259.519531 L 63.761719 181.085938 C 63.761719 180.890625 63.917969 180.734375 64.113281 180.734375 Z M 169.804688 284.089844 L 170.339844 284.089844 C 171.957031 290.605469 176.890625 295.226562 182.890625 295.226562 L 189.289062 295.226562 C 195.285156 295.226562 200.222656 290.605469 201.839844 284.089844 L 195.761719 284.089844 C 194.746094 284.089844 193.90625 283.296875 193.84375 282.285156 C 193.476562 276.304688 191.546875 257.503906 181.882812 257.503906 C 172.289062 257.503906 171.671875 276.03125 171.726562 282.152344 C 171.738281 283.21875 170.875 284.089844 169.804688 284.089844 Z M 175.882812 279.414062 C 175.882812 274.054688 179.019531 269.707031 182.890625 269.707031 C 186.761719 269.707031 189.898438 274.054688 189.898438 279.414062 C 189.898438 284.777344 186.761719 289.125 182.890625 289.125 C 179.019531 289.121094 175.882812 284.777344 175.882812 279.414062 Z M 228.105469 266.074219 L 223.015625 252.316406 L 259.859375 252.316406 L 254.773438 266.074219 Z M 267.953125 234.949219 L 268.0625 234.949219 C 268.257812 234.949219 268.417969 234.789062 268.417969 234.59375 C 268.417969 234.398438 268.257812 234.242188 268.0625 234.242188 L 267.949219 234.242188 C 267.917969 234.242188 267.886719 234.25 267.859375 234.261719 C 267.582031 233.242188 267.203125 232.25 266.714844 231.304688 L 254.738281 208.046875 L 202.234375 208.046875 L 209.003906 234.5625 L 267.597656 234.59375 C 267.597656 234.789062 267.757812 234.949219 267.953125 234.949219 Z M 250.855469 212.183594 L 246.78125 215.8125 L 239.199219 222.578125 L 236.605469 224.890625 L 233.738281 227.445312 L 231.886719 229.097656 C 230.421875 230.402344 228.53125 231.125 226.570312 231.121094 L 211.988281 231.113281 C 211.808594 231.113281 211.652344 230.992188 211.605469 230.816406 C 211.5625 230.644531 211.644531 230.460938 211.800781 230.375 L 217.277344 227.449219 L 228.195312 221.613281 L 236.605469 217.117188 L 239.199219 215.730469 L 246.78125 211.675781 L 247.03125 211.542969 C 247.089844 211.511719 247.152344 211.496094 247.21875 211.496094 L 250.59375 211.496094 C 250.953125 211.496094 251.125 211.941406 250.855469 212.183594 Z M 255.523438 217.6875 L 255.195312 218.136719 L 248.296875 227.445312 L 246.78125 229.492188 C 246.015625 230.523438 244.808594 231.132812 243.527344 231.132812 L 236.902344 231.128906 C 236.453125 231.128906 236.257812 230.5625 236.605469 230.28125 L 239.199219 228.207031 L 240.152344 227.445312 L 246.78125 222.140625 L 254.355469 216.082031 C 254.589844 215.894531 254.9375 215.96875 255.074219 216.234375 L 255.566406 217.1875 C 255.648438 217.347656 255.632812 217.542969 255.523438 217.6875 Z M 203.480469 234.59375 L 196.003906 208.046875 L 175.097656 208.046875 L 175.097656 234.59375 L 199.59375 234.59375 L 197.441406 231.757812 C 196.933594 231.839844 196.390625 231.882812 195.828125 231.882812 C 192.859375 231.882812 190.449219 230.683594 190.449219 229.203125 C 190.449219 227.726562 192.859375 226.527344 195.828125 226.527344 C 198.800781 226.527344 201.207031 227.726562 201.207031 229.203125 C 201.207031 229.886719 200.691406 230.511719 199.84375 230.984375 L 202.460938 234.59375 Z M 196.230469 223.148438 L 192.390625 226.21875 L 187.652344 230.007812 L 186.972656 230.550781 L 186.394531 231.015625 C 186.289062 231.101562 186.160156 231.144531 186.023438 231.144531 L 184.882812 231.144531 C 184.558594 231.144531 184.292969 230.882812 184.292969 230.558594 L 184.292969 229.183594 C 184.292969 229.015625 184.363281 228.855469 184.492188 228.742188 L 185.121094 228.179688 L 186.972656 226.527344 L 192.394531 221.695312 L 194.726562 219.613281 C 195.050781 219.324219 195.570312 219.476562 195.6875 219.894531 L 196.429688 222.527344 C 196.492188 222.757812 196.414062 223 196.230469 223.148438 Z M 171.714844 259.738281 C 171.714844 259.933594 171.554688 260.09375 171.359375 260.09375 C 171.164062 260.09375 171.007812 259.933594 171.007812 259.738281 L 171.007812 208.046875 C 171.007812 207.851562 171.164062 207.691406 171.359375 207.691406 C 171.554688 207.691406 171.714844 207.851562 171.714844 208.046875 Z M 206.449219 236.234375 L 198.570312 208.871094 C 198.515625 208.683594 198.625 208.488281 198.8125 208.433594 C 199.003906 208.378906 199.195312 208.488281 199.25 208.675781 L 207.140625 236.089844 C 207.152344 236.121094 207.15625 236.152344 207.15625 236.1875 L 207.15625 266.074219 C 207.15625 266.269531 206.996094 266.425781 206.800781 266.425781 C 206.605469 266.425781 206.449219 266.269531 206.449219 266.074219 Z M 221.546875 240.277344 C 221.351562 240.277344 221.191406 240.121094 221.191406 239.925781 C 221.191406 239.730469 221.351562 239.570312 221.546875 239.570312 L 260.257812 239.570312 C 260.453125 239.570312 260.613281 239.730469 260.613281 239.925781 C 260.613281 240.121094 260.453125 240.277344 260.257812 240.277344 Z M 213.621094 237.777344 C 213.425781 237.777344 213.265625 237.617188 213.265625 237.421875 C 213.265625 237.230469 213.425781 237.070312 213.621094 237.070312 L 265.3125 237.070312 C 265.507812 237.070312 265.664062 237.226562 265.664062 237.421875 C 265.664062 237.617188 265.507812 237.777344 265.3125 237.777344 Z M 174.746094 237.421875 C 174.746094 237.230469 174.902344 237.070312 175.097656 237.070312 C 175.292969 237.070312 175.453125 237.226562 175.453125 237.421875 L 175.453125 257.507812 C 175.453125 257.703125 175.292969 257.859375 175.097656 257.859375 C 174.902344 257.859375 174.746094 257.703125 174.746094 257.507812 Z M 194.394531 260.472656 C 188.929688 252.277344 179.304688 254.777344 179.207031 254.800781 C 179.019531 254.851562 178.824219 254.742188 178.773438 254.554688 C 178.722656 254.367188 178.832031 254.171875 179.019531 254.121094 C 179.121094 254.09375 189.234375 251.453125 194.984375 260.078125 C 199.636719 267.0625 199.28125 281.214844 199.265625 281.8125 C 199.257812 282.003906 199.101562 282.15625 198.910156 282.15625 C 198.90625 282.15625 198.902344 282.15625 198.902344 282.15625 C 198.707031 282.152344 198.550781 281.988281 198.558594 281.792969 C 198.5625 281.648438 198.925781 267.265625 194.394531 260.472656 Z M 203.480469 245.296875 L 177.417969 245.296875 C 177.222656 245.296875 177.066406 245.136719 177.066406 244.941406 C 177.066406 244.746094 177.222656 244.589844 177.417969 244.589844 L 203.480469 244.589844 C 203.675781 244.589844 203.832031 244.746094 203.832031 244.941406 C 203.832031 245.136719 203.675781 245.296875 203.480469 245.296875 Z M 177.417969 237.527344 L 184.582031 237.527344 C 184.777344 237.527344 184.9375 237.6875 184.9375 237.882812 C 184.9375 238.078125 184.777344 238.234375 184.582031 238.234375 L 177.417969 238.234375 C 177.222656 238.234375 177.066406 238.078125 177.066406 237.882812 C 177.066406 237.6875 177.222656 237.527344 177.417969 237.527344 Z M 259.859375 278.417969 C 259.664062 278.417969 259.507812 278.261719 259.507812 278.066406 L 259.507812 270.660156 C 259.507812 270.464844 259.664062 270.304688 259.859375 270.304688 C 260.054688 270.304688 260.214844 270.460938 260.214844 270.660156 L 260.214844 278.066406 C 260.214844 278.261719 260.054688 278.417969 259.859375 278.417969 Z M 254.382812 278.066406 C 254.382812 278.261719 254.226562 278.417969 254.03125 278.417969 C 253.835938 278.417969 253.675781 278.261719 253.675781 278.066406 L 253.675781 270.660156 C 253.675781 270.464844 253.835938 270.304688 254.03125 270.304688 C 254.226562 270.304688 254.382812 270.464844 254.382812 270.660156 Z M 248.199219 278.417969 C 248.003906 278.417969 247.847656 278.261719 247.847656 278.066406 L 247.847656 270.660156 C 247.847656 270.464844 248.003906 270.304688 248.199219 270.304688 C 248.394531 270.304688 248.554688 270.460938 248.554688 270.660156 L 248.554688 278.066406 C 248.554688 278.261719 248.394531 278.417969 248.199219 278.417969 Z M 242.371094 278.417969 C 242.175781 278.417969 242.015625 278.261719 242.015625 278.066406 L 242.015625 270.660156 C 242.015625 270.464844 242.175781 270.304688 242.371094 270.304688 C 242.566406 270.304688 242.722656 270.460938 242.722656 270.660156 L 242.722656 278.066406 C 242.722656 278.261719 242.566406 278.417969 242.371094 278.417969 Z M 236.539062 278.417969 C 236.34375 278.417969 236.1875 278.261719 236.1875 278.066406 L 236.1875 270.660156 C 236.1875 270.464844 236.34375 270.304688 236.539062 270.304688 C 236.734375 270.304688 236.894531 270.460938 236.894531 270.660156 L 236.894531 278.066406 C 236.894531 278.261719 236.734375 278.417969 236.539062 278.417969 Z M 230.710938 278.417969 C 230.515625 278.417969 230.355469 278.261719 230.355469 278.066406 L 230.355469 270.660156 C 230.355469 270.464844 230.515625 270.304688 230.710938 270.304688 C 230.90625 270.304688 231.0625 270.460938 231.0625 270.660156 L 231.0625 278.066406 C 231.0625 278.261719 230.90625 278.417969 230.710938 278.417969 Z M 225.234375 278.066406 C 225.234375 278.261719 225.074219 278.417969 224.878906 278.417969 C 224.683594 278.417969 224.527344 278.261719 224.527344 278.066406 L 224.527344 270.660156 C 224.527344 270.464844 224.683594 270.304688 224.878906 270.304688 C 225.074219 270.304688 225.234375 270.464844 225.234375 270.660156 Z M 266.097656 238.464844 C 266.292969 238.464844 266.449219 238.621094 266.449219 238.816406 L 266.449219 250.863281 C 266.449219 251.058594 266.292969 251.214844 266.097656 251.214844 C 265.902344 251.214844 265.742188 251.058594 265.742188 250.863281 L 265.742188 238.816406 C 265.742188 238.621094 265.902344 238.464844 266.097656 238.464844 Z M 208.53125 266.972656 L 266.816406 266.972656 C 267.011719 266.972656 267.171875 267.128906 267.171875 267.324219 C 267.171875 267.519531 267.011719 267.679688 266.816406 267.679688 L 208.53125 267.679688 C 208.335938 267.679688 208.179688 267.519531 208.179688 267.324219 C 208.179688 267.128906 208.335938 266.972656 208.53125 266.972656 Z M 145.886719 190.125 L 70.921875 190.125 C 70.726562 190.125 70.566406 189.964844 70.566406 189.769531 C 70.566406 189.574219 70.726562 189.414062 70.921875 189.414062 L 145.886719 189.414062 C 146.082031 189.414062 146.242188 189.574219 146.242188 189.769531 C 146.242188 189.964844 146.082031 190.125 145.886719 190.125 Z M 145.886719 197.949219 L 70.921875 197.949219 C 70.726562 197.949219 70.566406 197.792969 70.566406 197.597656 C 70.566406 197.402344 70.726562 197.242188 70.921875 197.242188 L 145.886719 197.242188 C 146.082031 197.242188 146.242188 197.402344 146.242188 197.597656 C 146.242188 197.792969 146.082031 197.949219 145.886719 197.949219 Z M 145.886719 205.777344 L 70.921875 205.777344 C 70.726562 205.777344 70.566406 205.617188 70.566406 205.421875 C 70.566406 205.226562 70.726562 205.070312 70.921875 205.070312 L 145.886719 205.070312 C 146.082031 205.070312 146.242188 205.226562 146.242188 205.421875 C 146.242188 205.617188 146.082031 205.777344 145.886719 205.777344 Z M 145.886719 213.601562 L 70.921875 213.601562 C 70.726562 213.601562 70.566406 213.445312 70.566406 213.25 C 70.566406 213.054688 70.726562 212.898438 70.921875 212.898438 L 145.886719 212.898438 C 146.082031 212.898438 146.242188 213.054688 146.242188 213.25 C 146.242188 213.445312 146.082031 213.601562 145.886719 213.601562 Z M 145.886719 221.429688 L 70.921875 221.429688 C 70.726562 221.429688 70.566406 221.273438 70.566406 221.078125 C 70.566406 220.882812 70.726562 220.722656 70.921875 220.722656 L 145.886719 220.722656 C 146.082031 220.722656 146.242188 220.882812 146.242188 221.078125 C 146.242188 221.273438 146.082031 221.429688 145.886719 221.429688 Z M 145.886719 229.257812 L 70.921875 229.257812 C 70.726562 229.257812 70.566406 229.097656 70.566406 228.902344 C 70.566406 228.707031 70.726562 228.550781 70.921875 228.550781 L 145.886719 228.550781 C 146.082031 228.550781 146.242188 228.707031 146.242188 228.902344 C 146.242188 229.097656 146.082031 229.257812 145.886719 229.257812 Z M 145.886719 237.082031 L 70.921875 237.082031 C 70.726562 237.082031 70.566406 236.925781 70.566406 236.730469 C 70.566406 236.535156 70.726562 236.378906 70.921875 236.378906 L 145.886719 236.378906 C 146.082031 236.378906 146.242188 236.535156 146.242188 236.730469 C 146.242188 236.925781 146.082031 237.082031 145.886719 237.082031 Z M 145.886719 244.910156 L 70.921875 244.910156 C 70.726562 244.910156 70.566406 244.753906 70.566406 244.558594 C 70.566406 244.363281 70.726562 244.203125 70.921875 244.203125 L 145.886719 244.203125 C 146.082031 244.203125 146.242188 244.363281 146.242188 244.558594 C 146.242188 244.753906 146.082031 244.910156 145.886719 244.910156 Z M 70.921875 252.03125 L 145.886719 252.03125 C 146.082031 252.03125 146.242188 252.1875 146.242188 252.382812 C 146.242188 252.578125 146.082031 252.738281 145.886719 252.738281 L 70.921875 252.738281 C 70.726562 252.738281 70.566406 252.578125 70.566406 252.382812 C 70.570312 252.1875 70.726562 252.03125 70.921875 252.03125 Z M 177.417969 200.808594 L 226.8125 200.808594 C 227.007812 200.808594 227.167969 200.964844 227.167969 201.160156 C 227.167969 201.355469 227.007812 201.515625 226.8125 201.515625 L 177.417969 201.515625 C 177.222656 201.515625 177.066406 201.355469 177.066406 201.160156 C 177.066406 200.964844 177.222656 200.808594 177.417969 200.808594 Z M 210.546875 252.800781 L 210.546875 258.058594 C 210.546875 258.253906 210.390625 258.414062 210.195312 258.414062 C 210 258.414062 209.839844 258.253906 209.839844 258.058594 L 209.839844 252.800781 C 209.839844 252.605469 210 252.445312 210.195312 252.445312 C 210.390625 252.445312 210.546875 252.605469 210.546875 252.800781 Z M 210.195312 265.96875 C 210 265.96875 209.839844 265.8125 209.839844 265.617188 L 209.839844 260.355469 C 209.839844 260.160156 210 260.003906 210.195312 260.003906 C 210.390625 260.003906 210.546875 260.160156 210.546875 260.355469 L 210.546875 265.617188 C 210.546875 265.8125 210.390625 265.96875 210.195312 265.96875 Z M 266.816406 252.445312 C 267.011719 252.445312 267.171875 252.605469 267.171875 252.800781 L 267.171875 258.058594 C 267.171875 258.253906 267.011719 258.414062 266.816406 258.414062 C 266.621094 258.414062 266.464844 258.253906 266.464844 258.058594 L 266.464844 252.800781 C 266.464844 252.605469 266.621094 252.445312 266.816406 252.445312 Z M 266.816406 260.003906 C 267.011719 260.003906 267.171875 260.160156 267.171875 260.355469 L 267.171875 265.617188 C 267.171875 265.8125 267.011719 265.96875 266.816406 265.96875 C 266.621094 265.96875 266.464844 265.8125 266.464844 265.617188 L 266.464844 260.355469 C 266.464844 260.160156 266.621094 260.003906 266.816406 260.003906 Z M 157.109375 249.925781 C 157.109375 250.121094 156.953125 250.28125 156.753906 250.28125 C 156.558594 250.28125 156.402344 250.121094 156.402344 249.925781 L 156.402344 207.042969 C 156.402344 206.847656 156.558594 206.691406 156.753906 206.691406 C 156.953125 206.691406 157.109375 206.847656 157.109375 207.042969 Z M 197.625 235.8125 L 204.789062 235.8125 C 204.984375 235.8125 205.144531 235.972656 205.144531 236.167969 C 205.144531 236.359375 204.984375 236.519531 204.789062 236.519531 L 197.625 236.519531 C 197.429688 236.519531 197.273438 236.359375 197.273438 236.167969 C 197.273438 235.972656 197.429688 235.8125 197.625 235.8125 Z M 197.625 235.8125 " fill-opacity="1" fill-rule="nonzero"/></g></svg>